<svg width="33" height="32" viewBox="0 0 33 32" fill="none" xmlns="http://www.w3.org/2000/svg">
<path d="M22.6201 10.1067L13.8334 18.8934L9.04675 14.1201L7.16675 16.0001L13.8334 22.6667L24.5001 12.0001L22.6201 10.1067ZM16.5001 2.66675C9.14008 2.66675 3.16675 8.64008 3.16675 16.0001C3.16675 23.3601 9.14008 29.3334 16.5001 29.3334C23.8601 29.3334 29.8334 23.3601 29.8334 16.0001C29.8334 8.64008 23.8601 2.66675 16.5001 2.66675ZM16.5001 26.6667C10.6067 26.6667 5.83341 21.8934 5.83341 16.0001C5.83341 10.1067 10.6067 5.33341 16.5001 5.33341C22.3934 5.33341 27.1667 10.1067 27.1667 16.0001C27.1667 21.8934 22.3934 26.6667 16.5001 26.6667Z" fill="#50CF9F"/>
</svg>
