<svg width="835" height="963" viewBox="0 0 835 963" fill="none" xmlns="http://www.w3.org/2000/svg">
<g clip-path="url(#clip0_360_10116)">
<path opacity="0.8" d="M1715.61 6.24919C1713.44 1.26308 1709.76 -2.92422 1704.98 -5.82344L936.327 -473.044C929.628 -477.107 921.265 -478.372 913.069 -476.564C904.873 -474.756 897.512 -470.021 892.598 -463.396L327.876 298.246C325.445 301.522 323.691 305.165 322.714 308.965C321.737 312.766 321.557 316.649 322.182 320.393C322.808 324.136 324.228 327.667 326.361 330.781C328.493 333.895 331.297 336.532 334.61 338.54L1103.26 805.76C1109.96 809.821 1118.33 811.083 1126.53 809.27C1134.73 807.456 1142.09 802.715 1147 796.085L1711.73 34.4431C1714.84 30.2421 1716.83 25.4518 1717.51 20.5209C1718.19 15.5899 1717.54 10.6794 1715.61 6.24919ZM326.256 325.468C324.479 321.381 323.879 316.852 324.511 312.305C325.144 307.758 326.989 303.343 329.873 299.474L894.599 -462.159C899.118 -468.259 905.892 -472.62 913.436 -474.287C920.98 -475.954 928.678 -474.789 934.844 -471.05L1703.49 -3.82889C1707.89 -1.16382 1711.28 2.68725 1713.27 7.27331C1715.05 11.3597 1715.65 15.8891 1715.01 20.4361C1714.38 24.9831 1712.54 29.3984 1709.65 33.2671L1144.93 794.909C1140.41 801.005 1133.63 805.361 1126.09 807.026C1118.54 808.69 1110.85 807.527 1104.68 803.791L336.03 336.57C331.635 333.905 328.245 330.054 326.256 325.468Z" fill="#46AF87"/>
<path opacity="0.8" d="M1708.35 -21.7209C1706.2 -26.6891 1702.5 -30.8389 1697.69 -33.6601L941.489 -479.619C934.891 -483.508 926.702 -484.65 918.714 -482.796C910.726 -480.941 903.592 -476.241 898.873 -469.725L357.97 278.43C355.633 281.65 353.962 285.221 353.053 288.938C352.143 292.655 352.013 296.445 352.669 300.089C353.326 303.734 354.756 307.162 356.878 310.176C359 313.191 361.772 315.732 365.034 317.654L1121.25 763.61C1127.85 767.484 1136.03 768.615 1144.01 766.757C1151.99 764.898 1159.12 760.201 1163.84 753.69L1704.75 5.53179C1707.72 1.44945 1709.6 -3.18467 1710.23 -7.946C1710.86 -12.7073 1710.21 -17.4436 1708.35 -21.7209ZM356.692 304.644C354.985 300.717 354.394 296.37 354.973 292C355.552 287.63 357.282 283.378 360.005 279.632L900.919 -468.527C905.243 -474.499 911.78 -478.81 919.1 -480.515C926.421 -482.22 933.928 -481.181 939.981 -477.626L1696.18 -31.6667C1700.6 -29.0688 1704.01 -25.2521 1705.98 -20.6844C1707.69 -16.7564 1708.28 -12.408 1707.7 -8.03693C1707.12 -3.66583 1705.39 0.588372 1702.67 4.33679L1161.76 752.495C1157.43 758.471 1150.88 762.783 1143.56 764.491C1136.23 766.198 1128.72 765.163 1122.65 761.611L366.455 315.652C362.044 313.046 358.65 309.219 356.692 304.644Z" fill="#46AF87"/>
<path opacity="0.8" d="M1701.12 -49.6891C1698.98 -54.662 1695.24 -58.7922 1690.38 -61.5435L946.623 -486.262C940.122 -489.95 932.114 -490.947 924.349 -489.035C916.584 -487.123 909.693 -482.457 905.181 -476.056L388.07 258.611C385.841 261.779 384.266 265.279 383.436 268.91C382.606 272.542 382.536 276.233 383.232 279.773C383.927 283.313 385.374 286.632 387.489 289.54C389.603 292.448 392.345 294.888 395.556 296.719L1139.31 721.419C1145.81 725.117 1153.82 726.121 1161.59 724.211C1169.36 722.301 1176.25 717.633 1180.77 711.228L1697.84 -23.4361C1700.63 -27.3968 1702.39 -31.8648 1702.96 -36.4442C1703.54 -41.0235 1702.9 -45.5729 1701.12 -49.6891ZM387.116 283.834C385.47 280.063 384.877 275.892 385.393 271.69C385.908 267.488 387.515 263.387 390.07 259.75L907.226 -474.891C911.358 -480.757 917.67 -485.035 924.784 -486.789C931.898 -488.544 939.235 -487.633 945.193 -484.255L1688.94 -59.5561C1693.39 -57.0266 1696.82 -53.2419 1698.79 -48.6881C1700.42 -44.9227 1701 -40.7603 1700.48 -36.5694C1699.97 -32.3786 1698.36 -28.2886 1695.81 -24.6614L1178.72 710.021C1174.59 715.889 1168.27 720.167 1161.15 721.917C1154.03 723.667 1146.69 722.746 1140.74 719.356L396.955 294.693C392.508 292.17 389.08 288.388 387.116 283.834Z" fill="#46AF87"/>
<path opacity="0.8" d="M1693.89 -77.6508C1691.76 -82.6214 1687.99 -86.7285 1683.09 -89.4152L951.784 -492.872C948.622 -494.624 945.069 -495.741 941.331 -496.158C937.592 -496.576 933.742 -496.286 930.002 -495.304C926.257 -494.341 922.692 -492.707 919.511 -490.495C916.331 -488.283 913.597 -485.537 911.468 -482.414L418.135 238.814C416.007 241.928 414.523 245.357 413.768 248.904C413.013 252.451 413.002 256.046 413.736 259.484C414.469 262.921 415.933 266.133 418.043 268.934C420.153 271.736 422.868 274.073 426.031 275.811L1157.33 679.249C1163.73 682.751 1171.56 683.613 1179.11 681.647C1186.66 679.682 1193.31 675.048 1197.62 668.757L1690.92 -52.4356C1693.54 -56.2658 1695.18 -60.5605 1695.69 -64.952C1696.21 -69.3434 1695.59 -73.7007 1693.89 -77.6508ZM417.533 263.025C415.974 259.41 415.407 255.421 415.88 251.4C416.353 247.379 417.853 243.447 420.25 239.941L913.545 -481.261C915.484 -484.113 917.975 -486.621 920.876 -488.642C923.777 -490.663 927.029 -492.156 930.446 -493.036C933.868 -493.938 937.392 -494.207 940.814 -493.827C944.236 -493.447 947.488 -492.426 950.382 -490.822L1681.68 -87.3843C1686.16 -84.9299 1689.6 -81.1795 1691.56 -76.6403C1693.12 -73.0249 1693.69 -69.0357 1693.21 -65.015C1692.74 -60.9944 1691.24 -57.0622 1688.84 -53.5559L1195.55 667.637C1191.6 673.384 1185.52 677.615 1178.62 679.405C1171.72 681.196 1164.57 680.401 1158.72 677.194L427.409 273.76C422.941 271.303 419.495 267.557 417.533 263.025Z" fill="#46AF87"/>
<path opacity="0.8" d="M1686.68 -105.635C1684.55 -110.597 1680.74 -114.671 1675.8 -117.282L956.951 -499.462C953.839 -501.131 950.354 -502.176 946.697 -502.534C943.04 -502.892 939.284 -502.557 935.647 -501.548C932.006 -500.564 928.551 -498.925 925.481 -496.726C922.412 -494.528 919.789 -491.814 917.765 -488.742L448.273 218.938C446.24 221.996 444.84 225.352 444.153 228.814C443.465 232.276 443.504 235.777 444.267 239.114C445.03 242.451 446.502 245.56 448.599 248.262C450.696 250.965 453.376 253.207 456.486 254.861L1175.38 637.135C1181.67 640.472 1189.33 641.217 1196.67 639.207C1204.01 637.197 1210.44 632.596 1214.55 626.41L1684 -81.398C1686.46 -85.1048 1687.98 -89.2363 1688.44 -93.4508C1688.91 -97.6653 1688.31 -101.842 1686.68 -105.635ZM447.957 242.218C446.464 238.758 445.906 234.944 446.328 231.095C446.75 227.246 448.141 223.472 450.385 220.088L919.863 -487.63C921.709 -490.428 924.099 -492.9 926.895 -494.904C929.691 -496.907 932.837 -498.403 936.154 -499.305C939.466 -500.22 942.886 -500.525 946.216 -500.2C949.547 -499.876 952.722 -498.93 955.559 -497.416L1674.41 -115.237C1678.93 -112.872 1682.42 -109.169 1684.39 -104.651C1685.87 -101.183 1686.42 -97.3642 1685.99 -93.5119C1685.56 -89.6596 1684.16 -85.8847 1681.91 -82.5005L1212.41 625.259C1208.66 630.896 1202.8 635.09 1196.11 636.92C1189.42 638.751 1182.44 638.069 1176.71 635.026L457.853 252.847C453.358 250.462 449.895 246.744 447.957 242.218Z" fill="#46AF87"/>
<path opacity="0.8" d="M1679.45 -133.605C1677.32 -138.565 1673.48 -142.613 1668.49 -145.144L962.091 -506.062C955.902 -509.227 948.423 -509.849 941.295 -507.791C934.167 -505.732 927.972 -501.162 924.07 -495.083L478.394 199.165C476.103 202.75 474.696 206.721 474.286 210.762C473.876 214.802 474.475 218.8 476.035 222.435C478.157 227.399 481.995 231.453 486.976 233.992L1193.38 594.91C1199.57 598.071 1207.05 598.688 1214.17 596.627C1221.3 594.565 1227.49 589.992 1231.39 583.912L1677.07 -110.336C1679.36 -113.919 1680.77 -117.889 1681.19 -121.929C1681.6 -125.97 1681.01 -129.968 1679.45 -133.605ZM478.392 221.393C476.972 218.089 476.427 214.454 476.799 210.78C477.172 207.107 478.452 203.496 480.537 200.237L926.182 -493.999C929.734 -499.518 935.362 -503.669 941.838 -505.543C948.313 -507.417 955.109 -506.862 960.741 -504L1667.15 -143.086C1671.68 -140.784 1675.17 -137.103 1677.09 -132.596C1678.51 -129.29 1679.06 -125.654 1678.69 -121.979C1678.31 -118.303 1677.04 -114.691 1674.95 -111.43L1229.28 582.818C1225.73 588.344 1220.1 592.5 1213.62 594.374C1207.15 596.249 1200.35 595.69 1194.72 592.819L488.315 231.902C483.783 229.601 480.29 225.918 478.36 221.406L478.392 221.393Z" fill="#46AF87"/>
<path opacity="0.8" d="M1672.24 -161.582C1670.12 -166.542 1666.25 -170.566 1661.22 -173.021L967.251 -512.668C964.236 -514.149 960.89 -515.029 957.404 -515.256C953.918 -515.483 950.362 -515.053 946.941 -513.992C943.517 -512.963 940.289 -511.322 937.443 -509.164C934.598 -507.006 932.192 -504.374 930.364 -501.418L508.498 179.344C506.662 182.291 505.437 185.504 504.893 188.796C504.349 192.089 504.497 195.398 505.329 198.532C506.161 201.666 507.659 204.565 509.739 207.06C511.819 209.556 514.439 211.6 517.448 213.075L1211.42 552.722C1217.52 555.679 1224.81 556.149 1231.72 554.029C1238.62 551.91 1244.57 547.373 1248.27 541.41L1670.18 -139.294C1672.34 -142.744 1673.65 -146.555 1674.01 -150.424C1674.37 -154.293 1673.76 -158.114 1672.24 -161.582ZM508.785 200.65C507.411 197.504 506.864 194.041 507.188 190.534C507.512 187.027 508.698 183.573 510.651 180.444L932.496 -500.375C934.158 -503.052 936.342 -505.438 938.922 -507.395C941.502 -509.353 944.428 -510.843 947.532 -511.781C950.639 -512.75 953.871 -513.142 957.04 -512.935C960.208 -512.728 963.249 -511.925 965.985 -510.574L1659.96 -170.927C1664.52 -168.714 1668.05 -165.073 1669.98 -160.577C1671.34 -157.422 1671.88 -153.952 1671.54 -150.439C1671.2 -146.927 1670 -143.471 1668.04 -140.343L1246.17 540.428C1242.82 545.835 1237.42 549.944 1231.15 551.859C1224.89 553.773 1218.27 553.337 1212.75 550.646L518.78 210.999C514.226 208.779 510.71 205.139 508.785 200.65Z" fill="#46AF87"/>
<path opacity="0.8" d="M1665.04 -189.563C1662.91 -194.525 1658.98 -198.512 1653.88 -200.861L972.382 -519.256C969.424 -520.653 966.151 -521.459 962.752 -521.627C959.353 -521.796 955.897 -521.323 952.586 -520.237C949.261 -519.184 946.139 -517.538 943.399 -515.393C940.66 -513.249 938.358 -510.649 936.626 -507.744L538.589 159.495C536.856 162.39 535.725 165.532 535.259 168.74C534.793 171.948 535.001 175.16 535.873 178.19C536.745 181.221 538.262 184.01 540.338 186.399C542.414 188.787 545.008 190.727 547.97 192.107L1229.47 510.502C1235.46 513.299 1242.58 513.655 1249.28 511.492C1255.98 509.328 1261.7 504.821 1265.19 498.961L1663.26 -168.258C1665.26 -171.581 1666.45 -175.227 1666.76 -178.918C1667.07 -182.61 1666.48 -186.25 1665.04 -189.563ZM539.161 179.804C537.858 176.809 537.326 173.517 537.605 170.18C537.883 166.842 538.966 163.546 540.77 160.542L938.814 -506.744C940.369 -509.363 942.436 -511.71 944.897 -513.651C947.358 -515.591 950.164 -517.086 953.155 -518.051C956.151 -519.027 959.275 -519.451 962.348 -519.299C965.42 -519.146 968.381 -518.419 971.057 -517.16L1652.56 -198.765C1657.15 -196.639 1660.7 -193.041 1662.63 -188.566C1663.93 -185.572 1664.47 -182.281 1664.19 -178.944C1663.91 -175.607 1662.83 -172.312 1661.03 -169.307L1263.04 497.99C1259.89 503.3 1254.71 507.387 1248.65 509.352C1242.59 511.317 1236.14 510.999 1230.72 508.468L549.222 190.073C544.613 187.935 541.061 184.309 539.161 179.804Z" fill="#46AF87"/>
<path opacity="0.8" d="M1657.84 -217.544C1655.7 -222.511 1651.72 -226.476 1646.57 -228.754L977.521 -525.89C974.607 -527.185 971.401 -527.906 968.088 -528.012C964.774 -528.118 961.418 -527.606 958.21 -526.506C954.999 -525.417 951.998 -523.758 949.381 -521.625C946.763 -519.491 944.581 -516.926 942.959 -514.076L568.707 139.723C567.079 142.564 566.041 145.632 565.651 148.754C565.261 151.876 565.527 154.99 566.434 157.916C567.342 160.842 568.872 163.524 570.938 165.807C573.004 168.091 575.566 169.931 578.475 171.222L1247.53 468.358C1253.41 470.968 1260.36 471.191 1266.84 468.976C1273.31 466.762 1278.8 462.291 1282.09 456.544L1656.35 -197.236C1658.18 -200.428 1659.27 -203.906 1659.53 -207.419C1659.78 -210.931 1659.21 -214.39 1657.84 -217.544ZM569.555 159.007C568.316 156.164 567.794 153.044 568.026 149.875C568.258 146.707 569.238 143.569 570.895 140.691L945.157 -513.08C946.622 -515.654 948.595 -517.971 950.962 -519.895C953.329 -521.82 956.044 -523.313 958.947 -524.288C961.825 -525.285 964.839 -525.751 967.816 -525.662C970.792 -525.572 973.673 -524.928 976.291 -523.766L1645.35 -226.635C1649.98 -224.579 1653.57 -221.015 1655.5 -216.553C1656.73 -213.707 1657.25 -210.586 1657.02 -207.418C1656.79 -204.249 1655.81 -201.111 1654.15 -198.232L1279.93 455.61C1276.96 460.79 1272.01 464.819 1266.17 466.815C1260.33 468.812 1254.08 468.613 1248.77 466.263L579.716 169.127C575.075 167.067 571.482 163.488 569.555 159.007Z" fill="#46AF87"/>
<path opacity="0.8" d="M1650.66 -245.541C1648.51 -250.494 1644.48 -254.42 1639.3 -256.615L982.697 -532.49C979.834 -533.691 976.7 -534.326 973.474 -534.36C970.248 -534.394 966.995 -533.827 963.902 -532.689C960.802 -531.578 957.919 -529.917 955.417 -527.803C952.916 -525.689 950.846 -523.164 949.328 -520.374L598.814 119.915C597.29 122.703 596.345 125.701 596.033 128.739C595.721 131.776 596.049 134.793 596.997 137.616C597.946 140.438 599.497 143.011 601.561 145.186C603.624 147.361 606.16 149.096 609.023 150.29L1265.61 426.257C1271.4 428.668 1278.16 428.746 1284.42 426.474C1290.67 424.202 1295.92 419.766 1299 414.133L1649.43 -226.189C1651.11 -229.254 1652.09 -232.57 1652.3 -235.911C1652.51 -239.252 1651.95 -242.537 1650.66 -245.541ZM599.923 138.201C598.753 135.505 598.244 132.553 598.432 129.551C598.62 126.548 599.5 123.567 601.012 120.813L951.459 -519.493C952.825 -522.005 954.688 -524.277 956.939 -526.179C959.191 -528.082 961.786 -529.576 964.575 -530.577C967.358 -531.593 970.283 -532.096 973.182 -532.056C976.081 -532.016 978.896 -531.434 981.463 -530.343L1638.07 -254.469C1642.74 -252.511 1646.36 -248.984 1648.29 -244.527C1649.45 -241.83 1649.96 -238.881 1649.77 -235.881C1649.58 -232.881 1648.7 -229.902 1647.2 -227.149L1296.79 413.206C1294.02 418.267 1289.3 422.25 1283.67 424.286C1278.05 426.322 1271.97 426.246 1266.77 424.074L610.17 148.199C605.483 146.235 601.847 142.689 599.926 138.211L599.923 138.201Z" fill="#46AF87"/>
<path opacity="0.8" d="M1643.48 -273.533C1641.32 -278.495 1637.23 -282.386 1631.97 -284.462L987.816 -539.076C982.14 -541.328 975.558 -541.301 969.509 -539.001C963.459 -536.7 958.433 -532.313 955.528 -526.798L628.9 100.054C627.474 102.787 626.615 105.714 626.374 108.667C626.133 111.621 626.514 114.542 627.495 117.265C628.477 119.987 630.039 122.456 632.092 124.53C634.145 126.604 636.649 128.242 639.461 129.351L1283.61 383.965C1289.3 386.203 1295.88 386.159 1301.93 383.842C1307.98 381.524 1312.99 377.122 1315.88 371.597L1642.5 -255.25C1644.01 -258.168 1644.88 -261.303 1645.05 -264.452C1645.22 -267.601 1644.68 -270.695 1643.48 -273.533ZM630.298 117.417C629.2 114.87 628.708 112.088 628.853 109.256C628.999 106.423 629.779 103.602 631.143 100.977L957.771 -525.874C960.364 -530.81 964.852 -534.74 970.259 -536.811C975.666 -538.881 981.554 -538.924 986.642 -536.93L1630.82 -282.329C1635.54 -280.471 1639.2 -276.984 1641.13 -272.538C1642.23 -269.99 1642.72 -267.207 1642.57 -264.373C1642.43 -261.539 1641.64 -258.717 1640.27 -256.093L1313.65 370.754C1311.06 375.699 1306.57 379.637 1301.16 381.711C1295.74 383.784 1289.84 383.825 1284.75 381.823L640.6 127.209C635.89 125.35 632.222 121.863 630.298 117.417Z" fill="#46AF87"/>
<path opacity="0.8" d="M1636.31 -301.526C1634.16 -306.501 1630 -310.364 1624.67 -312.326L992.945 -545.737C987.361 -547.786 980.956 -547.607 975.128 -545.237C969.301 -542.867 964.524 -538.499 961.84 -533.087L659.023 80.2928C657.694 82.9703 656.923 85.8257 656.754 88.6945C656.585 91.5634 657.022 94.3891 658.04 97.0087C659.057 99.6285 660.635 101.99 662.682 103.959C664.73 105.927 667.207 107.463 669.97 108.477L1301.69 341.879C1307.28 343.928 1313.68 343.748 1319.51 341.379C1325.33 339.009 1330.11 334.641 1332.8 329.229L1635.62 -284.122C1637 -286.922 1637.77 -289.911 1637.89 -292.904C1638.01 -295.898 1637.47 -298.832 1636.31 -301.526ZM660.665 96.6435C659.63 94.2415 659.15 91.6246 659.256 88.955C659.361 86.2855 660.05 83.62 661.28 81.1238L964.083 -532.262C966.48 -537.094 970.747 -540.992 975.95 -543.107C981.154 -545.222 986.873 -545.381 991.858 -543.55L1623.58 -310.139C1628.35 -308.387 1632.07 -304.933 1633.98 -300.483C1635.01 -298.081 1635.5 -295.464 1635.39 -292.794C1635.28 -290.124 1634.59 -287.459 1633.36 -284.963L1330.55 328.394C1328.15 333.226 1323.89 337.125 1318.68 339.239C1313.48 341.354 1307.76 341.513 1302.77 339.682L671.053 106.281C666.292 104.531 662.575 101.08 660.661 96.634L660.665 96.6435Z" fill="#46AF87"/>
<path opacity="0.8" d="M1629.17 -329.477C1627.03 -334.472 1622.79 -338.305 1617.38 -340.14L998.083 -552.339C995.371 -553.277 992.443 -553.685 989.468 -553.538C986.494 -553.39 983.532 -552.691 980.754 -551.481C977.97 -550.288 975.421 -548.608 973.254 -546.536C971.087 -544.465 969.344 -542.044 968.127 -539.412L689.128 60.4822C687.907 63.107 687.233 65.8905 687.144 68.6732C687.055 71.4558 687.553 74.1829 688.609 76.6977C689.665 79.2126 691.259 81.4659 693.298 83.3283C695.338 85.1907 697.784 86.6255 700.495 87.5505L1319.75 299.7C1325.23 301.565 1331.46 301.251 1337.07 298.826C1342.67 296.401 1347.21 292.063 1349.69 286.759L1628.7 -313.12C1629.94 -315.768 1630.62 -318.58 1630.7 -321.389C1630.78 -324.198 1630.26 -326.948 1629.17 -329.477ZM691.02 75.9042C690.04 73.6496 689.57 71.1952 689.641 68.6872C689.711 66.1792 690.319 63.669 691.429 61.3062L970.414 -538.626C971.494 -540.969 973.042 -543.125 974.97 -544.968C976.897 -546.812 979.166 -548.307 981.644 -549.367C984.114 -550.442 986.748 -551.063 989.392 -551.194C992.037 -551.325 994.641 -550.964 997.053 -550.13L1616.33 -337.979C1621.14 -336.345 1624.91 -332.935 1626.82 -328.491C1627.8 -326.238 1628.28 -323.785 1628.21 -321.277C1628.14 -318.769 1627.53 -316.259 1626.42 -313.897L1347.42 285.988C1345.21 290.706 1341.18 294.564 1336.18 296.719C1331.19 298.874 1325.65 299.152 1320.78 297.492L701.501 85.3409C696.688 83.7095 692.914 80.3005 691.002 75.8567L691.02 75.9042Z" fill="#46AF87"/>
<path opacity="0.8" d="M1622.01 -357.525C1620.94 -360.011 1619.33 -362.226 1617.28 -364.038C1615.22 -365.85 1612.76 -367.22 1610.04 -368.067L1003.22 -558.948C997.839 -560.627 991.792 -560.181 986.398 -557.707C981.004 -555.233 976.7 -550.931 974.425 -545.739L719.228 40.6856C718.108 43.255 717.523 45.966 717.507 48.663C717.491 51.3599 718.045 53.9898 719.136 56.4017C720.227 58.8135 721.834 60.96 723.865 62.7178C725.896 64.4756 728.31 65.8103 730.97 66.6451L1337.81 257.541C1343.19 259.217 1349.24 258.767 1354.63 256.29C1360.03 253.812 1364.33 249.507 1366.6 244.313L1621.79 -342.088C1624.02 -347.174 1624.1 -352.717 1622.01 -357.525ZM721.335 55.0513C719.487 50.7917 719.556 45.8832 721.528 41.3791L976.74 -545.008C978.749 -549.611 982.56 -553.426 987.339 -555.62C992.119 -557.815 997.478 -558.209 1002.25 -556.718L1609.07 -365.827C1611.48 -365.083 1613.67 -363.872 1615.49 -362.266C1617.31 -360.661 1618.73 -358.696 1619.67 -356.492C1621.52 -352.233 1621.45 -347.323 1619.48 -342.82L1364.28 243.582C1362.27 248.186 1358.46 252.003 1353.68 254.198C1348.9 256.393 1343.54 256.788 1338.77 255.296L731.941 64.4058C729.529 63.6567 727.345 62.4412 725.522 60.833C723.698 59.2249 722.274 57.2578 721.335 55.0513Z" fill="#46AF87"/>
<path opacity="0.8" d="M1614.88 -385.536C1613.8 -388.022 1612.17 -390.229 1610.08 -392.016C1607.99 -393.803 1605.49 -395.132 1602.74 -395.918L1008.36 -565.559C1005.74 -566.311 1002.95 -566.557 1000.15 -566.282C997.341 -566.007 994.577 -565.217 992.013 -563.957C989.435 -562.712 987.106 -561.019 985.159 -558.975C983.212 -556.93 981.686 -554.576 980.67 -552.047L749.332 20.8755C748.316 23.3915 747.825 26.0311 747.886 28.6428C747.947 31.2546 748.559 33.7873 749.689 36.0957C750.818 38.4041 752.441 40.4427 754.465 42.0948C756.489 43.7469 758.875 44.98 761.485 45.7233L1355.87 215.373C1361.15 216.874 1367.02 216.297 1372.2 213.769C1377.37 211.241 1381.44 206.968 1383.5 201.882L1614.88 -371.076C1616.82 -375.872 1616.82 -381.036 1614.88 -385.536ZM751.667 34.3113C749.955 30.3363 749.956 25.7785 751.671 21.543L983.051 -551.396C983.946 -553.622 985.288 -555.696 987 -557.497C988.713 -559.299 990.761 -560.792 993.028 -561.893C995.292 -563.004 997.731 -563.701 1000.21 -563.943C1002.68 -564.185 1005.14 -563.967 1007.45 -563.302L1601.83 -393.671C1604.25 -392.974 1606.46 -391.799 1608.3 -390.221C1610.15 -388.643 1611.59 -386.696 1612.54 -384.502C1614.26 -380.527 1614.25 -375.97 1612.54 -371.734L1381.19 201.183C1379.37 205.671 1375.78 209.442 1371.21 211.674C1366.64 213.906 1361.46 214.416 1356.8 213.094L762.393 43.4761C759.964 42.7817 757.757 41.6087 755.911 40.0312C754.064 38.4537 752.619 36.5059 751.667 34.3113Z" fill="#46AF87"/>
<path opacity="0.8" d="M1607.76 -413.561C1606.68 -416.068 1605.02 -418.283 1602.89 -420.054C1600.75 -421.825 1598.2 -423.111 1595.4 -423.824L1013.49 -572.137C1010.93 -572.811 1008.21 -572.989 1005.49 -572.661C1002.77 -572.333 1000.1 -571.505 997.636 -570.226C995.174 -568.948 992.966 -567.243 991.143 -565.21C989.319 -563.177 987.915 -560.857 987.013 -558.383L779.441 1.07398C778.525 3.5342 778.122 6.10077 778.256 8.6267C778.389 11.1526 779.057 13.5882 780.22 15.7939C781.382 17.9996 783.018 19.9319 785.032 21.4803C787.047 23.0287 789.4 24.1625 791.959 24.817L1373.89 173.197C1379.07 174.515 1384.76 173.808 1389.72 171.231C1394.68 168.654 1398.51 164.416 1400.37 159.443L1607.95 -400.018C1609.63 -404.54 1609.57 -409.348 1607.76 -413.561ZM781.974 13.5364C780.382 9.85384 780.314 5.64494 781.782 1.68564L989.375 -557.78C990.169 -559.944 991.4 -561.974 992.998 -563.752C994.595 -565.531 996.528 -567.023 998.683 -568.142C1000.84 -569.275 1003.18 -570.012 1005.57 -570.311C1007.96 -570.61 1010.34 -570.465 1012.6 -569.884L1594.53 -421.495C1596.99 -420.875 1599.24 -419.751 1601.12 -418.2C1602.99 -416.65 1604.46 -414.708 1605.41 -412.509C1606.99 -408.822 1607.05 -404.614 1605.59 -400.654L1398.02 158.803C1396.38 163.17 1393.01 166.892 1388.66 169.158C1384.3 171.424 1379.3 172.05 1374.76 170.901L792.849 22.5877C790.383 21.9585 788.134 20.824 786.257 19.2619C784.38 17.6997 782.919 15.7467 781.974 13.5364Z" fill="#46AF87"/>
<path opacity="0.8" d="M1600.65 -441.577C1599.57 -444.094 1597.88 -446.305 1595.71 -448.048C1593.53 -449.791 1590.93 -451.022 1588.09 -451.65L1018.61 -578.773C1013.54 -579.896 1008.03 -579.046 1003.29 -576.409C998.549 -573.773 994.963 -569.564 993.313 -564.7L809.58 -18.7378C808.77 -16.3309 808.463 -13.836 808.676 -11.3959C808.889 -8.95592 809.619 -6.61878 810.822 -4.51848C812.026 -2.41812 813.68 -0.595919 815.69 0.843793C817.7 2.2835 820.027 3.3124 822.536 3.87152L1391.98 131.017C1397.06 132.139 1402.57 131.289 1407.31 128.653C1412.05 126.016 1415.63 121.807 1417.28 116.943L1601.01 -429.019C1602.44 -433.238 1602.31 -437.671 1600.65 -441.577ZM812.277 -7.2131C810.807 -10.6218 810.682 -14.4994 811.921 -18.1914L995.654 -564.153C997.097 -568.411 1000.24 -572.095 1004.38 -574.404C1008.53 -576.712 1013.35 -577.457 1017.8 -576.475L1587.32 -449.363C1589.81 -448.814 1592.09 -447.737 1593.99 -446.211C1595.9 -444.685 1597.37 -442.748 1598.32 -440.544C1599.78 -437.133 1599.9 -433.258 1598.67 -429.565L1414.94 116.397C1413.49 120.653 1410.36 124.336 1406.21 126.643C1402.06 128.949 1397.24 129.692 1392.79 128.709L823.269 1.60629C820.783 1.05549 818.505 -0.0224563 816.602 -1.54853C814.7 -3.07463 813.222 -5.01011 812.277 -7.2131Z" fill="#46AF87"/>
<path opacity="0.8" d="M1593.56 -469.615C1592.48 -472.15 1590.76 -474.364 1588.54 -476.081C1586.32 -477.799 1583.65 -478.972 1580.76 -479.508L1023.74 -585.38C1018.77 -586.316 1013.44 -585.331 1008.91 -582.64C1004.39 -579.949 1001.05 -575.77 999.605 -571.015L839.625 -38.4937C838.918 -36.1411 838.703 -33.7181 838.992 -31.3636C839.282 -29.0092 840.07 -26.7696 841.311 -24.7733C842.553 -22.777 844.223 -21.0632 846.227 -19.7303C848.231 -18.3973 850.529 -17.4714 852.988 -17.0057L1410.05 88.84C1415.02 89.7734 1420.35 88.7876 1424.87 86.0975C1429.39 83.4074 1432.73 79.2312 1434.18 74.4789L1594.16 -458.042C1595.34 -461.959 1595.13 -466.029 1593.56 -469.615ZM842.507 -27.9477C841.15 -31.078 840.977 -34.628 842.015 -38.0427L1001.99 -570.564C1003.25 -574.709 1006.16 -578.353 1010.11 -580.699C1014.05 -583.044 1018.7 -583.901 1023.03 -583.081L1580.08 -477.208C1582.6 -476.738 1584.92 -475.715 1586.85 -474.218C1588.79 -472.722 1590.29 -470.793 1591.24 -468.585C1592.59 -465.454 1592.77 -461.905 1591.73 -458.49L1431.75 74.0309C1430.5 78.178 1427.58 81.8227 1423.63 84.1688C1419.69 86.515 1415.04 87.3719 1410.7 86.5522L853.7 -19.3279C851.174 -19.7896 848.847 -20.8094 846.903 -22.306C844.96 -23.8025 843.454 -25.7344 842.507 -27.9477Z" fill="#46AF87"/>
<path opacity="0.8" d="M1586.5 -497.649C1585.4 -500.198 1583.64 -502.411 1581.36 -504.103C1579.09 -505.794 1576.38 -506.916 1573.44 -507.374L1028.87 -591.986C1023.99 -592.739 1018.84 -591.62 1014.54 -588.874C1010.24 -586.128 1007.13 -581.979 1005.91 -577.333L869.752 -58.3115C869.148 -56.0136 869.025 -53.6631 869.392 -51.395C869.758 -49.1268 870.605 -46.9856 871.885 -45.0945C873.166 -43.2033 874.853 -41.5993 876.851 -40.3747C878.849 -39.1501 881.118 -38.329 883.528 -37.9584L1428.12 46.6587C1432.99 47.4086 1438.14 46.2886 1442.44 43.5434C1446.74 40.7981 1449.85 36.6504 1451.08 32.0059L1587.23 -487.016C1588.19 -490.636 1587.93 -494.353 1586.5 -497.649ZM872.811 -48.6979C871.564 -51.5585 871.345 -54.79 872.186 -57.9328L1008.33 -576.96C1009.4 -580.991 1012.09 -584.59 1015.83 -586.971C1019.56 -589.353 1024.03 -590.324 1028.26 -589.672L1572.82 -505.057C1575.37 -504.659 1577.73 -503.685 1579.7 -502.217C1581.68 -500.748 1583.21 -498.828 1584.17 -496.616C1585.4 -493.754 1585.62 -490.526 1584.78 -487.386L1448.64 31.6409C1447.57 35.6704 1444.87 39.2685 1441.14 41.6495C1437.41 44.0306 1432.94 45.0012 1428.71 44.3493L884.135 -40.2719C881.591 -40.6666 879.235 -41.6378 877.265 -43.1039C875.294 -44.57 873.767 -46.4883 872.811 -48.6979Z" fill="#46AF87"/>
<path opacity="0.8" d="M1579.4 -525.682C1578.3 -528.259 1576.5 -530.481 1574.17 -532.145C1571.84 -533.81 1569.06 -534.864 1566.07 -535.211L1033.98 -598.589C1029.21 -599.15 1024.25 -597.895 1020.16 -595.096C1016.08 -592.297 1013.22 -588.182 1012.2 -583.648L899.865 -78.1032C899.363 -75.8595 899.333 -73.5808 899.775 -71.398C900.217 -69.2153 901.123 -67.1715 902.441 -65.3843C903.759 -63.5971 905.463 -62.1016 907.455 -60.9839C909.447 -59.8662 911.688 -59.1482 914.048 -58.8713L1446.14 4.48308C1450.91 5.04743 1455.88 3.79281 1459.96 0.993293C1464.04 -1.80621 1466.9 -5.92283 1467.92 -10.4571L1580.32 -516.004C1581.03 -519.322 1580.72 -522.685 1579.4 -525.682ZM903.049 -69.4339C901.928 -72.0293 901.67 -74.9384 902.305 -77.8034L1014.65 -583.353C1015.53 -587.269 1018 -590.824 1021.53 -593.241C1025.06 -595.659 1029.35 -596.743 1033.47 -596.257L1565.6 -532.909C1568.18 -532.602 1570.58 -531.686 1572.59 -530.246C1574.6 -528.805 1576.15 -526.885 1577.1 -524.661C1578.22 -522.065 1578.48 -519.156 1577.84 -516.291L1465.5 -10.742C1464.62 -6.82493 1462.15 -3.2684 1458.62 -0.850243C1455.1 1.56786 1450.8 2.65088 1446.68 2.1618L914.572 -61.1843C911.988 -61.4862 909.58 -62.3996 907.567 -63.8408C905.554 -65.282 904 -67.205 903.049 -69.4339Z" fill="#46AF87"/>
<path opacity="0.8" d="M1572.39 -553.746C1571.26 -556.339 1569.41 -558.56 1567.01 -560.194C1564.62 -561.827 1561.77 -562.818 1558.73 -563.072L1039.04 -605.168C1034.39 -605.53 1029.62 -604.135 1025.77 -601.288C1021.92 -598.441 1019.3 -594.371 1018.49 -589.961L930.007 -97.9046C929.61 -95.7151 929.673 -93.5087 930.193 -91.4122C930.714 -89.3158 931.681 -87.3708 933.038 -85.6892C934.396 -84.0076 936.118 -82.6226 938.104 -81.6139C940.091 -80.6052 942.304 -79.9927 944.614 -79.8116L1464.31 -37.7057C1468.98 -37.3312 1473.77 -38.725 1477.63 -41.5821C1481.49 -44.4393 1484.11 -48.5274 1484.91 -52.9524L1573.39 -545C1573.92 -548.011 1573.57 -551.034 1572.39 -553.746ZM933.194 -90.1532C932.184 -92.4942 931.902 -95.103 932.377 -97.6969L1020.97 -589.753C1021.67 -593.55 1023.93 -597.053 1027.24 -599.505C1030.56 -601.957 1034.67 -603.159 1038.68 -602.852L1558.37 -560.756C1560.99 -560.556 1563.45 -559.711 1565.51 -558.303C1567.57 -556.896 1569.15 -554.975 1570.11 -552.733C1571.11 -550.396 1571.4 -547.792 1570.93 -545.203L1482.39 -53.1347C1481.7 -49.3305 1479.45 -45.8153 1476.13 -43.3587C1472.82 -40.9019 1468.7 -39.7037 1464.69 -40.0261L944.991 -82.1321C942.374 -82.3303 939.914 -83.1743 937.855 -84.5801C935.797 -85.9859 934.212 -87.9045 933.257 -90.1453L933.194 -90.1532Z" fill="#46AF87"/>
<path opacity="0.8" d="M1565.43 -581.845C1564.3 -584.474 1562.4 -586.708 1559.94 -588.31C1557.49 -589.913 1554.56 -590.825 1551.46 -590.949L1044.21 -611.79C1039.66 -611.966 1035.06 -610.435 1031.44 -607.529C1027.81 -604.623 1025.44 -600.579 1024.84 -596.277L960.072 -117.669C959.782 -115.533 959.941 -113.399 960.54 -111.389C961.14 -109.379 962.168 -107.532 963.565 -105.956C964.962 -104.38 966.701 -103.104 968.682 -102.203C970.663 -101.302 972.847 -100.793 975.108 -100.706L1482.34 -79.8792C1486.9 -79.7004 1491.49 -81.2311 1495.12 -84.1373C1498.75 -87.0436 1501.12 -91.0895 1501.72 -95.3926L1566.48 -574.001C1566.85 -576.711 1566.49 -579.408 1565.43 -581.845ZM963.462 -110.881C962.561 -112.965 962.256 -115.273 962.574 -117.59L1027.28 -596.154C1027.79 -599.844 1029.82 -603.315 1032.93 -605.806C1036.05 -608.298 1039.99 -609.608 1043.89 -609.448L1551.13 -588.603C1553.78 -588.498 1556.29 -587.719 1558.4 -586.349C1560.51 -584.978 1562.13 -583.066 1563.11 -580.816C1564 -578.726 1564.31 -576.418 1564 -574.098L1499.27 -95.5155C1498.76 -91.8265 1496.73 -88.3574 1493.62 -85.8664C1490.51 -83.3753 1486.57 -82.0647 1482.66 -82.2211L975.414 -103.053C972.765 -103.165 970.256 -103.952 968.152 -105.33C966.048 -106.708 964.428 -108.626 963.462 -110.881Z" fill="#46AF87"/>
</g>
<defs>
<clipPath id="clip0_360_10116">
<rect width="835" height="963" fill="white"/>
</clipPath>
</defs>
</svg>
