<svg width="24" height="25" viewBox="0 0 24 25" fill="none" xmlns="http://www.w3.org/2000/svg">
<path d="M11.9999 7.5C9.23988 7.5 6.99988 9.74 6.99988 12.5C6.99988 15.26 9.23988 17.5 11.9999 17.5C14.7599 17.5 16.9999 15.26 16.9999 12.5C16.9999 9.74 14.7599 7.5 11.9999 7.5ZM11.9999 2.5C6.47988 2.5 1.99988 6.98 1.99988 12.5C1.99988 18.02 6.47988 22.5 11.9999 22.5C17.5199 22.5 21.9999 18.02 21.9999 12.5C21.9999 6.98 17.5199 2.5 11.9999 2.5ZM11.9999 20.5C7.57988 20.5 3.99988 16.92 3.99988 12.5C3.99988 8.08 7.57988 4.5 11.9999 4.5C16.4199 4.5 19.9999 8.08 19.9999 12.5C19.9999 16.92 16.4199 20.5 11.9999 20.5Z" var:color.fill="#BCBCBC" />
</svg>
