<svg width="714" height="379" viewBox="0 0 714 379" fill="none" xmlns="http://www.w3.org/2000/svg" xmlns:xlink="http://www.w3.org/1999/xlink" style="transform:scaleX(-1);">
<mask id="mask0_591_13333" style="mask-type:alpha;" maskUnits="userSpaceOnUse" x="-99" y="0" width="808" height="371">
<path d="M-23.728 15.6455C-21.6883 6.50234 -13.5756 0 -4.20778 0H688.401C701.407 0 710.954 12.2185 707.807 24.8384L625.281 355.838C623.06 364.748 615.057 371 605.875 371H-78.0469C-90.8485 371 -100.354 359.14 -97.567 346.645L-23.728 15.6455Z" fill="#141415"/>
</mask>
<g mask="url(#mask0_591_13333)">
<rect x="-29" y="-91" width="841" height="596" fill="#141415"/>
<rect x="72" width="509" height="384" fill="url(#pattern0)"/>
<rect x="50" y="-7" width="536" height="405" fill="url(#pattern1)"/>
</g>
<defs>
<pattern id="pattern0" patternContentUnits="objectBoundingBox" width="1" height="1">
<use xlink:href="#image0_591_13333" transform="translate(0 -0.000178496) scale(0.001443 0.00191273)"/>
</pattern>
<pattern id="pattern1" patternContentUnits="objectBoundingBox" width="1" height="1">
<use xlink:href="#image1_591_13333" transform="translate(-0.000601082) scale(0.00144474 0.00191205)"/>
</pattern>
</defs>
</svg>
