<svg width="246" height="408" viewBox="0 0 246 408" fill="none" xmlns="http://www.w3.org/2000/svg">
<g opacity="0.2">
<path opacity="0.8" d="M-376.622 170.301C-375.869 168.182 -374.501 166.348 -372.679 165.012L-79.622 -50.1682C-77.068 -52.0397 -73.8048 -52.8074 -70.5472 -52.3032C-67.2896 -51.799 -64.3031 -50.0639 -62.2421 -47.4781L174.659 249.827C175.678 251.105 176.439 252.555 176.897 254.093C177.356 255.63 177.503 257.226 177.33 258.787C177.157 260.349 176.668 261.845 175.89 263.192C175.113 264.538 174.062 265.707 172.799 266.632L-120.258 481.813C-122.814 483.683 -126.079 484.45 -129.338 483.943C-132.597 483.437 -135.584 481.7 -137.644 479.112L-374.545 181.807C-375.853 180.167 -376.729 178.251 -377.093 176.239C-377.456 174.227 -377.294 172.183 -376.622 170.301ZM175.828 260.999C176.446 259.262 176.594 257.378 176.256 255.522C175.919 253.667 175.107 251.901 173.898 250.392L-63.0045 -46.9091C-64.9001 -49.2905 -67.6484 -50.8889 -70.6469 -51.3539C-73.6454 -51.8189 -76.6493 -51.1126 -79.0001 -49.3898L-372.057 165.791C-373.733 167.018 -374.99 168.705 -375.683 170.654C-376.301 172.39 -376.449 174.275 -376.111 176.13C-375.774 177.986 -374.962 179.751 -373.753 181.261L-136.852 478.566C-134.954 480.945 -132.206 482.541 -129.207 483.006C-126.209 483.47 -123.206 482.764 -120.855 481.042L172.202 265.862C173.878 264.634 175.135 262.947 175.828 260.999Z" fill="#46AF87"/>
<path opacity="0.8" d="M-374.557 158.784C-373.809 156.673 -372.433 154.854 -370.598 153.55L-82.0199 -52.5017C-79.5023 -54.2986 -76.3049 -55.0103 -73.1283 -54.4808C-69.9518 -53.9514 -67.055 -52.224 -65.0727 -49.6771L162.201 242.77C163.182 244.028 163.909 245.451 164.339 246.956C164.769 248.461 164.894 250.019 164.708 251.541C164.521 253.062 164.025 254.517 163.25 255.822C162.475 257.127 161.435 258.256 160.19 259.144L-128.392 465.194C-130.912 466.985 -134.108 467.692 -137.282 467.161C-140.456 466.63 -143.35 464.903 -145.332 462.359L-372.609 169.911C-373.855 168.315 -374.686 166.461 -375.026 164.517C-375.366 162.573 -375.205 160.602 -374.557 158.784ZM163.215 253.536C163.809 251.868 163.957 250.059 163.644 248.275C163.331 246.491 162.567 244.789 161.424 243.325L-65.8536 -49.1231C-67.6703 -51.4576 -70.3245 -53.0419 -73.2357 -53.5294C-76.1469 -54.0169 -79.0781 -53.3679 -81.3884 -51.7245L-369.966 154.327C-371.652 155.528 -372.916 157.201 -373.605 159.142C-374.198 160.811 -374.346 162.62 -374.033 164.405C-373.72 166.189 -372.957 167.892 -371.814 169.357L-144.537 461.805C-142.717 464.14 -140.061 465.725 -137.147 466.213C-134.234 466.702 -131.3 466.054 -128.985 464.412L159.592 258.361C161.275 257.157 162.535 255.48 163.215 253.536Z" fill="#46AF87"/>
<path opacity="0.8" d="M-372.5 147.269C-371.756 145.157 -370.365 143.344 -368.509 142.067L-84.4079 -54.8631C-81.924 -56.5747 -78.7954 -57.2212 -75.7053 -56.6615C-72.6152 -56.1018 -69.8147 -54.3814 -67.9156 -51.876L149.74 235.712C150.678 236.952 151.366 238.348 151.763 239.82C152.16 241.293 152.26 242.812 152.056 244.292C151.851 245.771 151.348 247.182 150.573 248.442C149.798 249.703 148.768 250.789 147.542 251.639L-136.557 448.561C-139.04 450.277 -142.17 450.926 -145.262 450.367C-148.354 449.809 -151.157 448.088 -153.056 445.581L-370.698 157.993C-371.872 156.443 -372.651 154.653 -372.966 152.782C-373.28 150.912 -373.12 149.018 -372.5 147.269ZM150.608 246.08C151.182 244.477 151.333 242.74 151.048 241.024C150.763 239.307 150.052 237.664 148.976 236.24L-68.6971 -51.3355C-70.436 -53.6318 -73.0011 -55.2092 -75.8322 -55.7231C-78.6632 -56.237 -81.5301 -55.6456 -83.8064 -54.0782L-367.905 142.844C-369.604 144.018 -370.877 145.678 -371.562 147.613C-372.131 149.213 -372.279 150.946 -371.993 152.658C-371.707 154.37 -370.996 156.008 -369.923 157.428L-152.274 445.023C-150.535 447.32 -147.968 448.897 -145.135 449.409C-142.303 449.921 -139.435 449.325 -137.161 447.753L146.952 250.844C148.651 249.674 149.925 248.014 150.608 246.08Z" fill="#46AF87"/>
<path opacity="0.8" d="M-370.444 135.758C-369.702 133.646 -368.3 131.842 -366.427 130.591L-86.8051 -57.2105C-85.5962 -58.0256 -84.2213 -58.5904 -82.7597 -58.8724C-81.2982 -59.1545 -79.7789 -59.1481 -78.2894 -58.8537C-76.7983 -58.5669 -75.3647 -57.9982 -74.0711 -57.18C-72.7774 -56.3619 -71.6491 -55.3105 -70.7508 -54.0862L137.294 228.662C138.192 229.883 138.842 231.253 139.208 232.692C139.574 234.132 139.649 235.614 139.428 237.052C139.207 238.49 138.694 239.857 137.919 241.074C137.144 242.291 136.123 243.334 134.913 244.143L-144.707 431.937C-147.155 433.568 -150.217 434.154 -153.223 433.566C-156.229 432.978 -158.935 431.264 -160.752 428.798L-368.783 146.063C-369.887 144.561 -370.614 142.839 -370.904 141.044C-371.193 139.25 -371.035 137.436 -370.444 135.758ZM138.004 238.624C138.546 237.088 138.691 235.427 138.427 233.783C138.162 232.14 137.496 230.564 136.485 229.189L-71.5449 -53.5499C-72.3629 -54.6681 -73.3915 -55.6287 -74.5713 -56.3762C-75.7512 -57.1238 -77.059 -57.6436 -78.4196 -57.9057C-79.7825 -58.1769 -81.1732 -58.184 -82.511 -57.9268C-83.8489 -57.6695 -85.1074 -57.1529 -86.2138 -56.4068L-365.834 131.387C-367.545 132.53 -368.827 134.177 -369.508 136.105C-370.05 137.641 -370.195 139.302 -369.93 140.945C-369.666 142.589 -368.999 144.165 -367.988 145.54L-159.957 428.275C-158.296 430.527 -155.821 432.092 -153.073 432.627C-150.326 433.162 -147.528 432.624 -145.293 431.13L134.331 243.338C136.04 242.194 137.321 240.549 138.004 238.624Z" fill="#46AF87"/>
<path opacity="0.8" d="M-368.395 124.236C-367.653 122.129 -366.236 120.337 -364.346 119.116L-89.205 -59.549C-88.0144 -60.3287 -86.6645 -60.8617 -85.2338 -61.1169C-83.8031 -61.3721 -82.3199 -61.3445 -80.8703 -61.0357C-79.4196 -60.737 -78.0292 -60.1632 -76.7795 -59.3475C-75.5298 -58.5318 -74.4458 -57.4904 -73.59 -56.2835L124.817 221.582C125.676 222.782 126.292 224.124 126.63 225.531C126.968 226.938 127.021 228.381 126.787 229.779C126.552 231.177 126.034 232.502 125.262 233.677C124.491 234.853 123.481 235.856 122.291 236.629L-152.863 415.334C-155.273 416.895 -158.268 417.427 -161.194 416.814C-164.119 416.202 -166.736 414.494 -168.473 412.066L-366.868 134.147C-367.905 132.691 -368.584 131.033 -368.85 129.31C-369.116 127.587 -368.96 125.847 -368.395 124.236ZM125.396 231.167C125.916 229.697 126.061 228.109 125.82 226.535C125.578 224.961 124.958 223.446 124.009 222.118L-74.3929 -55.7635C-75.1735 -56.8625 -76.1613 -57.8111 -77.2996 -58.5546C-78.4379 -59.2982 -79.7042 -59.8221 -81.0257 -60.0961C-82.3458 -60.376 -83.6962 -60.4009 -84.9992 -60.1693C-86.3022 -59.9378 -87.532 -59.4543 -88.6179 -58.7468L-363.759 119.918C-365.489 121.025 -366.788 122.654 -367.474 124.574C-367.99 126.047 -368.131 127.637 -367.886 129.213C-367.641 130.788 -367.017 132.302 -366.066 133.631L-167.655 411.529C-166.072 413.742 -163.687 415.298 -161.02 415.855C-158.354 416.413 -155.624 415.927 -153.428 414.504L121.714 235.839C123.434 234.724 124.723 233.09 125.396 231.167Z" fill="#46AF87"/>
<path opacity="0.8" d="M-366.339 112.721C-365.599 110.614 -364.167 108.833 -362.257 107.643L-91.5945 -61.893C-89.2233 -63.3797 -86.2951 -63.8559 -83.4527 -63.2173C-80.6102 -62.5787 -78.0855 -60.8773 -76.4326 -58.4866L112.349 214.543C113.32 215.953 113.951 217.549 114.191 219.202C114.431 220.856 114.274 222.521 113.732 224.065C112.994 226.174 111.565 227.957 109.656 229.15L-161.006 398.686C-163.378 400.171 -166.306 400.645 -169.148 400.005C-171.99 399.365 -174.514 397.663 -176.166 395.271L-364.947 122.241C-365.92 120.832 -366.552 119.237 -366.794 117.584C-367.035 115.931 -366.88 114.266 -366.339 112.721ZM112.785 223.705C113.278 222.301 113.421 220.787 113.203 219.284C112.985 217.781 112.411 216.33 111.528 215.048L-77.2415 -57.9774C-78.7459 -60.148 -81.0398 -61.6929 -83.6221 -62.2748C-86.2045 -62.8567 -88.8654 -62.4282 -91.0236 -61.083L-361.69 108.451C-363.424 109.534 -364.723 111.153 -365.393 113.068C-365.886 114.472 -366.03 115.987 -365.812 117.49C-365.593 118.994 -365.02 120.445 -364.137 121.728L-175.355 394.758C-173.853 396.931 -171.559 398.479 -168.976 399.061C-166.392 399.643 -163.73 399.212 -161.573 397.864L109.089 228.328C110.826 227.246 112.127 225.626 112.797 223.709L112.785 223.705Z" fill="#46AF87"/>
<path opacity="0.8" d="M-364.291 101.203C-363.555 99.0961 -362.111 97.3237 -360.183 96.1639L-93.9919 -64.2397C-92.8358 -64.9386 -91.5372 -65.3996 -90.1712 -65.5958C-88.8052 -65.792 -87.3988 -65.7195 -86.0334 -65.3827C-84.6669 -65.0594 -83.3657 -64.4781 -82.2049 -63.6723C-81.0441 -62.8665 -80.0468 -61.8522 -79.2705 -60.688L99.8876 207.485C100.667 208.646 101.211 209.934 101.49 211.275C101.768 212.616 101.774 213.984 101.508 215.3C101.243 216.617 100.71 217.855 99.9414 218.945C99.1726 220.035 98.1826 220.954 97.0282 221.651L-169.163 382.055C-171.502 383.453 -174.362 383.861 -177.118 383.19C-179.873 382.52 -182.301 380.825 -183.872 378.476L-363.046 110.329C-363.963 108.97 -364.553 107.438 -364.769 105.854C-364.985 104.27 -364.821 102.677 -364.291 101.203ZM100.191 216.275C100.67 214.938 100.817 213.494 100.621 212.059C100.425 210.623 99.8916 209.234 99.0625 208.002L-80.0883 -60.195C-80.794 -61.2497 -81.699 -62.1688 -82.7516 -62.8996C-83.8041 -63.6305 -84.9835 -64.1588 -86.2222 -64.4542C-87.4629 -64.762 -88.7412 -64.8285 -89.9827 -64.6499C-91.2242 -64.4712 -92.404 -64.0511 -93.4534 -63.4138L-359.645 96.9898C-361.397 98.0362 -362.711 99.6408 -363.381 101.55C-363.857 102.891 -364 104.337 -363.799 105.775C-363.598 107.213 -363.058 108.602 -362.223 109.833L-183.066 378.01C-181.641 380.139 -179.438 381.674 -176.938 382.279C-174.438 382.884 -171.846 382.51 -169.727 381.238L96.464 220.834C98.2111 219.785 99.5219 218.182 100.191 216.275Z" fill="#46AF87"/>
<path opacity="0.8" d="M-362.245 89.6837C-361.507 87.5763 -360.037 85.817 -358.081 84.6992L-96.3768 -66.5784C-95.2411 -67.2411 -93.9698 -67.6697 -92.637 -67.8391C-91.3041 -68.0085 -89.9363 -67.9154 -88.6132 -67.5651C-87.2854 -67.2289 -86.0256 -66.6422 -84.9068 -65.839C-83.7879 -65.0358 -82.8321 -64.0319 -82.0947 -62.8855L87.4311 200.415C88.1687 201.557 88.6751 202.818 88.921 204.127C89.1669 205.436 89.1476 206.765 88.8641 208.04C88.5806 209.315 88.0385 210.509 87.269 211.555C86.4996 212.6 85.5178 213.476 84.3803 214.132L-177.323 365.409C-179.623 366.738 -182.417 367.095 -185.092 366.4C-187.767 365.705 -190.105 364.016 -191.592 361.703L-361.13 98.4124C-361.979 97.1014 -362.521 95.6341 -362.714 94.1218C-362.908 92.6094 -362.747 91.0917 -362.245 89.6837ZM87.603 208.802C88.0566 207.529 88.2015 206.157 88.0267 204.789C87.8519 203.422 87.362 202.095 86.5941 200.91L-82.9351 -62.409C-83.5976 -63.4429 -84.4562 -64.3494 -85.4616 -65.0767C-86.467 -65.804 -87.5995 -66.3377 -88.7942 -66.6473C-89.991 -66.9617 -91.2275 -67.0446 -92.4326 -66.8912C-93.6376 -66.7378 -94.7872 -66.3512 -95.815 -65.7536L-357.519 85.524C-359.283 86.5353 -360.61 88.1228 -361.279 90.0239C-361.733 91.2964 -361.879 92.6683 -361.705 94.0355C-361.531 95.4027 -361.041 96.7292 -360.274 97.9145L-190.765 361.24C-189.423 363.336 -187.309 364.868 -184.888 365.5C-182.467 366.131 -179.937 365.81 -177.855 364.608L83.8484 213.33C85.6184 212.314 86.9441 210.715 87.603 208.802Z" fill="#46AF87"/>
<path opacity="0.8" d="M-360.203 78.1645C-359.461 76.0548 -357.971 74.3032 -355.993 73.2129L-98.7676 -68.9359C-97.6472 -69.5556 -96.4011 -69.9472 -95.1005 -70.0882C-93.7998 -70.2293 -92.4702 -70.1171 -91.1875 -69.7581C-89.9039 -69.4037 -88.6918 -68.8081 -87.621 -68.0058C-86.5503 -67.2035 -85.6421 -66.2103 -84.9488 -65.0834L74.9627 193.377C75.6582 194.499 76.1265 195.734 76.3409 197.009C76.5553 198.284 76.5115 199.575 76.2119 200.808C75.9124 202.041 75.363 203.191 74.5953 204.193C73.8277 205.195 72.8568 206.029 71.7384 206.646L-185.487 348.795C-187.75 350.044 -190.475 350.34 -193.066 349.618C-195.656 348.896 -197.9 347.215 -199.306 344.943L-359.219 86.4908C-360.003 85.2293 -360.498 83.8276 -360.668 82.3875C-360.838 80.9474 -360.679 79.5048 -360.203 78.1645ZM75.0065 201.35C75.4377 200.141 75.5821 198.84 75.429 197.541C75.2759 196.242 74.8293 194.977 74.1216 193.84L-85.7935 -64.6082C-86.4196 -65.6263 -87.2407 -66.5232 -88.209 -67.2466C-89.1773 -67.97 -90.2735 -68.5056 -91.434 -68.8223C-92.585 -69.1482 -93.7792 -69.2519 -94.9476 -69.1274C-96.1161 -69.0029 -97.2358 -68.6527 -98.2424 -68.0968L-355.472 74.0506C-357.25 75.0339 -358.591 76.6083 -359.264 78.5044C-359.693 79.7136 -359.836 81.015 -359.682 82.3142C-359.529 83.6133 -359.082 84.8777 -358.375 86.0156L-198.474 344.494C-197.206 346.542 -195.183 348.057 -192.848 348.708C-190.513 349.359 -188.056 349.093 -186.016 347.968L71.2095 205.819C72.9935 204.834 74.3364 203.253 75.0065 201.35Z" fill="#46AF87"/>
<path opacity="0.8" d="M-358.166 66.6388C-357.418 64.5341 -355.912 62.7973 -353.917 61.7402L-101.17 -71.2797C-100.068 -71.8586 -98.8486 -72.2128 -97.5811 -72.3217C-96.3136 -72.4307 -95.0236 -72.2924 -93.7853 -71.9147C-92.5451 -71.5476 -91.379 -70.948 -90.3543 -70.1503C-89.3296 -69.3527 -88.4665 -68.3729 -87.8149 -67.2675L62.5001 186.323C63.1539 187.427 63.5842 188.635 63.7661 189.878C63.9481 191.121 63.8781 192.373 63.5604 193.565C63.2426 194.756 62.6832 195.862 61.9144 196.819C61.1455 197.776 60.1824 198.566 59.0802 199.142L-193.659 332.2C-195.888 333.364 -198.544 333.595 -201.048 332.842C-203.552 332.09 -205.7 330.416 -207.023 328.185L-357.305 74.5789C-358.026 73.3651 -358.475 72.0268 -358.624 70.6561C-358.772 69.2854 -358.616 67.9149 -358.166 66.6388ZM62.4218 193.892C62.8291 192.746 62.9713 191.515 62.8387 190.283C62.7061 189.051 62.3018 187.848 61.6538 186.758L-88.6354 -66.8418C-89.2219 -67.8367 -89.9986 -68.7185 -90.9209 -69.4363C-91.8431 -70.1542 -92.8926 -70.6939 -94.0088 -71.0243C-95.1226 -71.3613 -96.2826 -71.4824 -97.4215 -71.3805C-98.5604 -71.2787 -99.6555 -70.9561 -100.643 -70.4312L-353.39 62.5887C-355.188 63.5328 -356.545 65.0934 -357.216 66.9869C-357.62 68.1326 -357.761 69.3632 -357.628 70.5941C-357.496 71.825 -357.092 73.027 -356.446 74.1174L-206.173 327.738C-204.981 329.742 -203.049 331.245 -200.798 331.919C-198.547 332.593 -196.16 332.382 -194.158 331.334L58.5885 198.314C60.3927 197.367 61.753 195.798 62.4206 193.896L62.4218 193.892Z" fill="#46AF87"/>
<path opacity="0.8" d="M-356.13 55.1163C-355.381 53.0078 -353.846 51.2835 -351.819 50.2735L-103.552 -73.6174C-101.364 -74.7128 -98.7762 -74.8953 -96.3528 -74.1251C-93.9294 -73.3549 -91.8678 -71.6946 -90.6181 -69.5068L50.0441 179.248C50.6583 180.332 51.053 181.514 51.2055 182.724C51.3581 183.934 51.2654 185.149 50.9328 186.3C50.6003 187.451 50.0344 188.515 49.2677 189.43C48.501 190.345 47.5485 191.094 46.465 191.634L-201.802 315.525C-203.994 316.614 -206.584 316.79 -209.006 316.013C-211.428 315.235 -213.486 313.568 -214.729 311.376L-355.387 62.623C-356.04 61.465 -356.444 60.1986 -356.572 58.9055C-356.7 57.6125 -356.549 56.3216 -356.13 55.1163ZM49.8338 186.446C50.2158 185.363 50.3551 184.202 50.2425 183.039C50.1299 181.876 49.7679 180.736 49.1803 179.695L-91.4818 -69.0602C-92.5977 -71.0181 -94.439 -72.5061 -96.6051 -73.2004C-98.7713 -73.8948 -101.087 -73.7393 -103.048 -72.7678L-351.328 51.1189C-353.144 52.023 -354.518 53.5682 -355.187 55.4575C-355.569 56.54 -355.709 57.7014 -355.596 58.8652C-355.482 60.0289 -355.119 61.1688 -354.529 62.2099L-213.871 310.963C-212.756 312.925 -210.912 314.416 -208.743 315.112C-206.574 315.807 -204.255 315.65 -202.292 314.675L45.9752 190.784C47.7904 189.879 49.1644 188.334 49.8338 186.446Z" fill="#46AF87"/>
<path opacity="0.8" d="M-354.098 43.5928C-353.351 41.4788 -351.79 39.7645 -349.733 38.7991L-105.937 -75.9871C-103.782 -76.9961 -101.26 -77.1104 -98.9229 -76.3051C-96.5857 -75.4997 -94.6224 -73.8402 -93.4615 -71.6885L37.5763 172.214C38.1512 173.278 38.5102 174.433 38.6327 175.61C38.7551 176.788 38.6386 177.965 38.2898 179.075C37.941 180.184 37.3668 181.204 36.6003 182.076C35.8339 182.947 34.8902 183.653 33.8237 184.152L-209.971 298.935C-212.126 299.944 -214.648 300.058 -216.985 299.253C-219.322 298.447 -221.286 296.788 -222.446 294.636L-353.488 50.7455C-354.084 49.6322 -354.445 48.423 -354.55 47.1927C-354.655 45.9624 -354.501 44.7372 -354.098 43.5928ZM37.2505 179.001C37.6106 177.981 37.748 176.888 37.6543 175.791C37.5605 174.694 37.2376 173.616 36.7055 172.623L-94.3268 -71.2822C-95.3639 -73.2032 -97.1173 -74.6846 -99.2044 -75.4031C-101.292 -76.1217 -103.543 -76.0191 -105.467 -75.1178L-349.263 39.6685C-351.101 40.5306 -352.496 42.0637 -353.161 43.9541C-353.521 44.9745 -353.659 46.0672 -353.565 47.1645C-353.472 48.2617 -353.148 49.3401 -352.616 50.3326L-221.58 294.226C-220.543 296.147 -218.789 297.628 -216.702 298.347C-214.615 299.065 -212.364 298.963 -210.439 298.061L33.355 183.279C35.1924 182.418 36.5865 180.886 37.2518 178.997L37.2505 179.001Z" fill="#46AF87"/>
<path opacity="0.8" d="M-352.076 32.0879C-351.33 29.9658 -349.738 28.2613 -347.648 27.3461L-108.325 -78.3314C-107.277 -78.7981 -106.134 -79.0522 -104.961 -79.079C-103.789 -79.1058 -102.611 -78.9048 -101.495 -78.4876C-100.377 -78.078 -99.3424 -77.4603 -98.45 -76.6704C-97.5575 -75.8804 -96.8252 -74.9337 -96.2951 -73.8849L25.1151 165.16C25.6462 166.206 25.9656 167.333 26.055 168.477C26.1444 169.622 26.002 170.76 25.6359 171.828C25.2699 172.895 24.6874 173.871 23.922 174.699C23.1565 175.526 22.2231 176.189 21.1753 176.65L-218.132 282.307C-220.251 283.236 -222.705 283.29 -224.958 282.456C-227.211 281.621 -229.079 279.967 -230.155 277.853L-351.572 38.8156C-352.111 37.7608 -352.434 36.6219 -352.52 35.4664C-352.607 34.3109 -352.456 33.1621 -352.076 32.0879ZM24.6725 171.572C25.0139 170.614 25.1504 169.588 25.0738 168.557C24.9971 167.525 24.709 166.508 24.2264 165.567L-97.179 -73.4937C-97.6492 -74.4275 -98.3001 -75.2705 -99.094 -75.9737C-99.8879 -76.6769 -100.809 -77.2264 -101.804 -77.5902C-102.796 -77.9608 -103.843 -78.1393 -104.886 -78.1155C-105.928 -78.0917 -106.945 -77.866 -107.877 -77.4515L-347.193 28.2058C-349.053 29.0206 -350.468 30.5372 -351.131 32.4251C-351.475 33.3824 -351.613 34.4075 -351.537 35.4391C-351.461 36.4707 -351.173 37.4875 -350.689 38.4283L-229.278 277.469C-228.32 279.349 -226.657 280.82 -224.653 281.561C-222.648 282.303 -220.465 282.255 -218.58 281.427L20.7366 175.769C22.5969 174.955 24.0138 173.439 24.6786 171.552L24.6725 171.572Z" fill="#46AF87"/>
<path opacity="0.8" d="M-350.048 20.5417C-349.679 19.4861 -349.09 18.5257 -348.317 17.7185C-347.544 16.9112 -346.603 16.274 -345.551 15.8451L-110.714 -80.6793C-108.631 -81.5299 -106.245 -81.524 -104.076 -80.6629C-101.907 -79.8018 -100.131 -78.1553 -99.1356 -76.0823L12.6542 158.111C13.1448 159.137 13.4276 160.237 13.4865 161.348C13.5454 162.459 13.3792 163.56 12.9974 164.586C12.6156 165.612 12.0258 166.544 11.2618 167.328C10.4977 168.112 9.57454 168.734 8.54514 169.156L-226.298 265.687C-228.382 266.536 -230.768 266.529 -232.936 265.666C-235.105 264.803 -236.88 263.156 -237.874 261.082L-349.662 26.898C-350.637 24.8674 -350.776 22.5851 -350.048 20.5417ZM12.1064 164.094C12.7498 162.284 12.6267 160.263 11.7634 158.465L-100.031 -75.7128C-100.911 -77.5508 -102.484 -79.0114 -104.406 -79.7752C-106.328 -80.539 -108.442 -80.5439 -110.287 -79.7889L-345.125 16.7395C-346.059 17.1171 -346.893 17.6807 -347.578 18.3959C-348.263 19.1111 -348.784 19.9628 -349.109 20.899C-349.754 22.7089 -349.631 24.7302 -348.767 26.5285L-236.978 260.712C-236.098 262.551 -234.524 264.012 -232.602 264.776C-230.679 265.54 -228.564 265.545 -226.718 264.79L8.11967 168.262C9.05331 167.882 9.88819 167.317 10.5735 166.6C11.2589 165.884 11.7804 165.031 12.1064 164.094Z" fill="#46AF87"/>
<path opacity="0.8" d="M-348.034 9.01262C-347.659 7.95623 -347.059 6.99871 -346.272 6.20063C-345.485 5.40256 -344.528 4.78129 -343.462 4.37613L-113.102 -83.0275C-112.089 -83.4144 -110.997 -83.5978 -109.889 -83.567C-108.781 -83.5362 -107.679 -83.2918 -106.646 -82.848C-105.608 -82.4109 -104.66 -81.7814 -103.854 -80.9962C-103.049 -80.2109 -102.403 -79.2853 -101.954 -78.2731L0.191554 151.057C0.640189 152.064 0.885003 153.137 0.911997 154.216C0.93899 155.294 0.747644 156.356 0.3489 157.341C-0.049839 158.325 -0.648162 159.213 -1.4117 159.954C-2.17523 160.694 -3.089 161.272 -4.10065 161.656L-234.462 249.063C-236.508 249.837 -238.827 249.772 -240.912 248.883C-242.997 247.993 -244.679 246.351 -245.589 244.316L-347.749 14.9722C-348.609 13.0528 -348.71 10.9246 -348.034 9.01262ZM-0.463664 156.663C0.131729 154.975 0.0420814 153.096 -0.714824 151.401L-102.877 -77.9348C-103.273 -78.8259 -103.841 -79.641 -104.549 -80.3331C-105.258 -81.0251 -106.092 -81.5806 -107.005 -81.9674C-107.916 -82.3589 -108.889 -82.5744 -109.867 -82.6012C-110.845 -82.6281 -111.809 -82.4659 -112.703 -82.124L-343.062 5.27559C-344.002 5.63458 -344.846 6.18367 -345.54 6.8883C-346.234 7.59293 -346.764 8.43785 -347.095 9.36993C-347.691 11.0586 -347.601 12.9371 -346.844 14.6324L-244.693 243.96C-243.889 245.756 -242.405 247.205 -240.566 247.99C-238.726 248.775 -236.679 248.833 -234.873 248.152L-4.50153 160.756C-3.56023 160.398 -2.71539 159.85 -2.02036 159.146C-1.32534 158.441 -0.795307 157.596 -0.463664 156.663Z" fill="#46AF87"/>
<path opacity="0.8" d="M-346.022 -2.52195C-345.647 -3.58715 -345.037 -4.54896 -344.233 -5.34172C-343.428 -6.13449 -342.449 -6.73956 -341.362 -7.11564L-115.489 -85.3622C-114.495 -85.7152 -113.43 -85.8686 -112.353 -85.8135C-111.277 -85.7584 -110.212 -85.4959 -109.219 -85.0412C-108.226 -84.5867 -107.325 -83.949 -106.568 -83.1647C-105.811 -82.3805 -105.214 -81.4654 -104.811 -80.4724L-12.2716 144.007C-11.8635 144.994 -11.655 146.04 -11.6582 147.085C-11.6614 148.13 -11.8762 149.153 -12.2902 150.096C-12.7043 151.04 -13.3095 151.884 -14.0712 152.582C-14.8329 153.279 -15.7361 153.816 -16.729 154.161L-242.61 232.435C-244.619 233.131 -246.87 233.007 -248.871 232.091C-250.872 231.175 -252.46 229.541 -253.289 227.546L-345.832 3.06523C-346.582 1.25115 -346.65 -0.732693 -346.022 -2.52195ZM-13.0239 149.218C-12.4702 147.653 -12.5257 145.916 -13.1803 144.328L-105.728 -80.1542C-106.082 -81.0229 -106.606 -81.8233 -107.269 -82.5093C-107.931 -83.1953 -108.72 -83.7534 -109.59 -84.1513C-110.459 -84.5548 -111.394 -84.7899 -112.338 -84.8429C-113.283 -84.8959 -114.22 -84.7658 -115.094 -84.4601L-340.976 -6.1814C-341.932 -5.8534 -342.793 -5.32414 -343.5 -4.62975C-344.208 -3.93536 -344.745 -3.09219 -345.076 -2.15784C-345.626 -0.591772 -345.569 1.14454 -344.916 2.73359L-252.376 227.213C-251.647 228.964 -250.252 230.399 -248.495 231.205C-246.738 232.011 -244.761 232.122 -242.996 231.515L-17.1227 153.268C-16.1653 152.936 -15.3034 152.403 -14.596 151.703C-13.8886 151.004 -13.3523 150.156 -13.0239 149.218Z" fill="#46AF87"/>
<path opacity="0.8" d="M-344.015 -14.0536C-343.639 -15.1228 -343.018 -16.0839 -342.197 -16.8663C-341.376 -17.6486 -340.377 -18.2325 -339.272 -18.575L-117.873 -87.7222C-115.899 -88.334 -113.717 -88.1458 -111.802 -87.1986C-109.887 -86.2514 -108.395 -84.622 -107.651 -82.6658L-24.7478 136.952C-24.3824 137.921 -24.2129 138.94 -24.2491 139.952C-24.2852 140.964 -24.5262 141.949 -24.9584 142.85C-25.3905 143.751 -26.0052 144.55 -26.7673 145.203C-27.5294 145.855 -28.4239 146.348 -29.3995 146.652L-250.787 215.808C-252.761 216.42 -254.943 216.231 -256.858 215.284C-258.773 214.337 -260.265 212.708 -261.009 210.751L-343.912 -8.86695C-344.555 -10.5638 -344.592 -12.3949 -344.015 -14.0536ZM-25.5828 141.782C-25.0718 140.334 -25.0982 138.732 -25.6576 137.247L-108.561 -82.3718C-109.211 -84.084 -110.517 -85.5104 -112.193 -86.3397C-113.869 -87.1691 -115.779 -87.3342 -117.507 -86.7989L-338.928 -17.6547C-339.895 -17.3553 -340.77 -16.8443 -341.488 -16.1593C-342.206 -15.4742 -342.749 -14.6326 -343.077 -13.6963C-343.584 -12.2474 -343.558 -10.6467 -343.002 -9.16103L-260.099 210.457C-259.448 212.169 -258.141 213.595 -256.465 214.423C-254.789 215.252 -252.879 215.416 -251.151 214.88L-29.7321 145.74C-28.7652 145.44 -27.8907 144.929 -27.1727 144.244C-26.4548 143.559 -25.9115 142.718 -25.5828 141.782Z" fill="#46AF87"/>
<path opacity="0.8" d="M-342.017 -25.5926C-341.641 -26.6693 -341.007 -27.6325 -340.167 -28.4057C-339.328 -29.1789 -338.304 -29.7408 -337.178 -30.0469L-120.258 -90.069C-118.32 -90.6012 -116.206 -90.352 -114.375 -89.3758C-112.545 -88.3996 -111.148 -86.7757 -110.488 -84.8583L-37.1861 129.919C-36.8621 130.868 -36.7302 131.861 -36.7979 132.84C-36.8656 133.818 -37.1316 134.765 -37.5807 135.624C-38.0297 136.483 -38.653 137.239 -39.4148 137.847C-40.1765 138.456 -41.0618 138.905 -42.0197 139.169L-258.955 199.182C-260.893 199.713 -263.006 199.463 -264.835 198.487C-266.665 197.511 -268.061 195.889 -268.721 193.972L-342.023 -20.8055C-342.564 -22.3853 -342.562 -24.0688 -342.017 -25.5926ZM-38.1127 134.351C-37.6405 133.021 -37.6419 131.553 -38.1167 130.176L-111.419 -84.6021C-111.993 -86.2739 -113.211 -87.69 -114.806 -88.5407C-116.402 -89.3915 -118.246 -89.6078 -119.935 -89.1423L-336.865 -29.1189C-337.845 -28.8512 -338.737 -28.3611 -339.469 -27.6874C-340.201 -27.0136 -340.754 -26.1746 -341.083 -25.2367C-341.554 -23.9065 -341.553 -22.4384 -341.079 -21.0615L-267.777 193.716C-267.202 195.389 -265.984 196.805 -264.387 197.656C-262.791 198.507 -260.946 198.723 -259.257 198.258L-42.3449 138.233C-41.361 137.968 -40.4659 137.479 -39.7311 136.805C-38.9963 136.132 -38.4421 135.291 -38.1127 134.351Z" fill="#46AF87"/>
<path opacity="0.8" d="M-340.027 -37.13C-339.642 -38.2129 -338.993 -39.1767 -338.133 -39.9409C-337.273 -40.7051 -336.226 -41.2474 -335.082 -41.5224L-122.641 -92.4158C-120.739 -92.8694 -118.693 -92.5598 -116.948 -91.5546C-115.202 -90.5495 -113.901 -88.9306 -113.328 -87.0519L-49.6556 122.863C-49.3733 123.792 -49.2793 124.757 -49.3789 125.703C-49.4785 126.648 -49.7699 127.556 -50.2362 128.373C-50.7025 129.19 -51.3346 129.901 -52.0962 130.464C-52.8577 131.028 -53.7338 131.433 -54.6741 131.657L-267.121 182.553C-269.022 183.005 -271.068 182.695 -272.813 181.69C-274.558 180.685 -275.86 179.067 -276.434 177.189L-340.106 -32.7258C-340.551 -34.1898 -340.524 -35.7295 -340.027 -37.13ZM-50.6704 126.915C-50.2361 125.699 -50.2133 124.361 -50.6052 123.09L-114.272 -86.8269C-114.771 -88.4568 -115.901 -89.8608 -117.416 -90.7326C-118.931 -91.6044 -120.707 -91.8731 -122.357 -91.4801L-334.794 -40.5853C-335.788 -40.3465 -336.696 -39.8757 -337.443 -39.2125C-338.19 -38.5492 -338.754 -37.7126 -339.088 -36.7727C-339.518 -35.5567 -339.539 -34.2201 -339.148 -32.9507L-275.481 176.967C-274.983 178.596 -273.853 180 -272.339 180.871C-270.825 181.743 -269.05 182.011 -267.401 181.618L-54.958 130.721C-53.9654 130.483 -53.0581 130.014 -52.3121 129.352C-51.5661 128.689 -51.0031 127.854 -50.6704 126.915Z" fill="#46AF87"/>
</g>
</svg>
