<svg width="26" height="67" viewBox="0 0 26 67" fill="none" xmlns="http://www.w3.org/2000/svg">
<g clip-path="url(#clip0_260_12883)">
<path d="M20.2988 -11.6274L20.5181 -11.3183V11.351V34.0204L20.2988 34.3294C20.0798 34.6389 20.0731 34.6389 19.4866 34.6389C18.9002 34.6389 18.8938 34.6389 18.6745 34.3294L18.4556 34.0204L18.4684 11.3054L18.4876 -11.4091L18.7001 -11.673C18.8999 -11.9279 18.9386 -11.9369 19.4927 -11.9369C20.0731 -11.9369 20.0795 -11.9369 20.2988 -11.6274Z" fill="#3A3A3A"/>
<path d="M5.66213 -11.8551C5.73287 -11.8095 5.84908 -11.682 5.91982 -11.5732C6.04883 -11.373 6.04883 -11.2456 6.04883 11.3601V34.0931L5.86828 34.3389C5.70727 34.5752 5.64899 34.5938 5.08208 34.6209L4.4697 34.6575L4.24401 34.3389L4.01833 34.0204V11.351V-11.3183L4.23761 -11.6274C4.45016 -11.9274 4.4697 -11.9369 4.99147 -11.9274C5.28857 -11.9278 5.59139 -11.8912 5.66213 -11.8551Z" fill="#3A3A3A"/>
<path d="M23.5019 3.71867C23.7531 3.92787 23.8047 4.27352 23.8047 5.80161C23.8047 7.9939 23.8175 7.97583 22.303 7.98486H21.2268V5.80208V3.61883H22.303C22.9218 3.61883 23.4375 3.664 23.5019 3.71867Z" fill="#3A3A3A"/>
<path d="M17.7466 5.8021V7.98535H12.2685H6.79036V5.8021V3.61884H12.2685H17.7466V5.8021Z" fill="#3A3A3A"/>
<path d="M3.31021 5.8021V7.98535H2.22759C0.719536 7.97632 0.732336 7.99438 0.732336 5.8021C0.732336 4.25547 0.783873 3.90982 1.0483 3.70965C1.11903 3.65498 1.63474 3.61884 2.24073 3.61884H3.31055V5.8021H3.31021Z" fill="#3A3A3A"/>
<path d="M23.4764 14.8442C23.7664 15.0714 23.7988 15.2897 23.8052 16.9727V18.5555L23.6182 18.8194L23.4313 19.0833H22.3291H21.227V16.9V14.7167H22.2712C23.0186 14.7258 23.3666 14.7624 23.4764 14.8442Z" fill="#3A3A3A"/>
<path d="M17.7466 16.9V19.0833H12.2685H6.79036V16.9V14.7167H12.2685H17.7466V16.9Z" fill="#3A3A3A"/>
<path d="M3.31006 16.9V19.0833H2.24023C1.63425 19.0833 1.11887 19.0466 1.0478 18.9924C0.783373 18.7923 0.731833 18.4466 0.731833 16.9C0.731833 14.7167 0.731833 14.7167 2.27863 14.7167H3.30972V16.9H3.31006Z" fill="#3A3A3A"/>
<path d="M23.4955 25.9697C23.7727 26.2155 23.8047 26.4427 23.8047 28.0711C23.8047 30.2363 23.7788 30.2725 22.1936 30.2725H21.2268V28.0436V25.8147H22.271C23.1344 25.8152 23.3537 25.8423 23.4955 25.9697Z" fill="#3A3A3A"/>
<path d="M17.7466 28.0436V30.2725H12.2685H6.79036V28.0436V25.8147H12.2685H17.7466V28.0436Z" fill="#3A3A3A"/>
<path d="M3.31006 28.0436V30.2725H2.34331C0.75778 30.2725 0.73218 30.2359 0.73218 28.0621C0.73218 25.8061 0.725779 25.8151 2.27897 25.8151H3.31006V28.0436Z" fill="#3A3A3A"/>
</g>
<g clip-path="url(#clip1_260_12883)">
<path d="M20.2988 21.8726L20.5181 22.1817V44.851V67.5204L20.2988 67.8294C20.0798 68.1389 20.0731 68.1389 19.4866 68.1389C18.9002 68.1389 18.8938 68.1389 18.6745 67.8294L18.4556 67.5204L18.4684 44.8054L18.4876 22.0909L18.7001 21.827C18.8999 21.5721 18.9386 21.5631 19.4927 21.5631C20.0731 21.5631 20.0795 21.5631 20.2988 21.8726Z" fill="#3A3A3A"/>
<path d="M5.66213 21.6449C5.73287 21.6905 5.84908 21.818 5.91982 21.9268C6.04883 22.127 6.04883 22.2544 6.04883 44.8601V67.5931L5.86828 67.8389C5.70727 68.0752 5.64899 68.0938 5.08208 68.1209L4.4697 68.1575L4.24401 67.8389L4.01833 67.5204V44.851V22.1817L4.23761 21.8726C4.45016 21.5726 4.4697 21.5631 4.99147 21.5726C5.28857 21.5722 5.59139 21.6088 5.66213 21.6449Z" fill="#3A3A3A"/>
<path d="M23.5019 37.2187C23.7531 37.4279 23.8047 37.7735 23.8047 39.3016C23.8047 41.4939 23.8175 41.4758 22.303 41.4849H21.2268V39.3021V37.1188H22.303C22.9218 37.1188 23.4375 37.164 23.5019 37.2187Z" fill="#3A3A3A"/>
<path d="M17.7466 39.3021V41.4854H12.2685H6.79036V39.3021V37.1188H12.2685H17.7466V39.3021Z" fill="#3A3A3A"/>
<path d="M3.31021 39.3021V41.4854H2.22759C0.719536 41.4763 0.732336 41.4944 0.732336 39.3021C0.732336 37.7555 0.783873 37.4098 1.0483 37.2097C1.11903 37.155 1.63474 37.1188 2.24073 37.1188H3.31055V39.3021H3.31021Z" fill="#3A3A3A"/>
<path d="M23.4764 48.3442C23.7664 48.5714 23.7988 48.7897 23.8052 50.4727V52.0555L23.6182 52.3194L23.4313 52.5833H22.3291H21.227V50.4V48.2167H22.2712C23.0186 48.2258 23.3666 48.2624 23.4764 48.3442Z" fill="#3A3A3A"/>
<path d="M17.7466 50.4V52.5833H12.2685H6.79036V50.4V48.2167H12.2685H17.7466V50.4Z" fill="#3A3A3A"/>
<path d="M3.31006 50.4V52.5833H2.24023C1.63425 52.5833 1.11887 52.5466 1.0478 52.4924C0.783373 52.2923 0.731833 51.9466 0.731833 50.4C0.731833 48.2167 0.731833 48.2167 2.27863 48.2167H3.30972V50.4H3.31006Z" fill="#3A3A3A"/>
<path d="M23.4955 59.4697C23.7727 59.7155 23.8047 59.9427 23.8047 61.5711C23.8047 63.7363 23.7788 63.7725 22.1936 63.7725H21.2268V61.5436V59.3147H22.271C23.1344 59.3152 23.3537 59.3423 23.4955 59.4697Z" fill="#3A3A3A"/>
<path d="M17.7466 61.5436V63.7725H12.2685H6.79036V61.5436V59.3147H12.2685H17.7466V61.5436Z" fill="#3A3A3A"/>
<path d="M3.31006 61.5436V63.7725H2.34331C0.75778 63.7725 0.73218 63.7359 0.73218 61.5621C0.73218 59.3061 0.725779 59.3151 2.27897 59.3151H3.31006V61.5436Z" fill="#3A3A3A"/>
</g>
<defs>
<clipPath id="clip0_260_12883">
<rect width="25.443" height="33.5" fill="white" transform="matrix(-1 0 0 1 25.4429 0)"/>
</clipPath>
<clipPath id="clip1_260_12883">
<rect width="25.443" height="33.5" fill="white" transform="matrix(-1 0 0 1 25.4429 33.5)"/>
</clipPath>
</defs>
</svg>
