<svg width="333" height="365" viewBox="0 0 333 365" fill="none" xmlns="http://www.w3.org/2000/svg">
<path opacity="0.8" d="M632.949 86.2113C631.945 84.1278 630.371 82.3729 628.411 81.1516L313.074 -115.666C310.326 -117.378 307.015 -117.928 303.867 -117.198C300.718 -116.468 297.988 -114.515 296.275 -111.769L99.3853 203.972C98.5379 205.33 97.9666 206.842 97.7042 208.423C97.4417 210.004 97.4932 211.621 97.8558 213.183C98.2184 214.744 98.8849 216.219 99.8171 217.522C100.749 218.826 101.929 219.932 103.288 220.778L418.625 417.596C421.375 419.307 424.687 419.856 427.837 419.123C430.986 418.391 433.716 416.436 435.428 413.688L632.318 97.9469C633.405 96.2054 634.033 94.2152 634.144 92.1627C634.254 90.1102 633.843 88.0625 632.949 86.2113V86.2113ZM99.609 215.309C98.7853 213.601 98.4078 211.712 98.5121 209.82C98.6164 207.927 99.199 206.093 100.205 204.489L297.097 -111.248C298.672 -113.777 301.184 -115.575 304.082 -116.248C306.98 -116.921 310.028 -116.415 312.557 -114.839L627.894 81.9784C629.697 83.1011 631.144 84.7151 632.066 86.6314C632.89 88.3389 633.267 90.2277 633.163 92.1204C633.059 94.013 632.476 95.8474 631.47 97.4511L434.58 413.192C433.003 415.719 430.49 417.515 427.593 418.187C424.695 418.86 421.648 418.353 419.118 416.779L103.781 219.962C101.978 218.839 100.531 217.225 99.609 215.309V215.309Z" fill="#46AF87"/>
<path opacity="0.8" d="M629.801 74.7171C628.804 72.6411 627.224 70.9018 625.255 69.7129L315.456 -118.212C312.753 -119.851 309.514 -120.35 306.448 -119.599C303.383 -118.849 300.74 -116.911 299.1 -114.209L111.101 195.98C110.289 197.315 109.748 198.798 109.509 200.344C109.27 201.89 109.339 203.468 109.71 204.989C110.082 206.509 110.749 207.941 111.674 209.203C112.599 210.465 113.763 211.532 115.1 212.342L424.902 400.265C427.606 401.898 430.843 402.392 433.906 401.64C436.969 400.888 439.609 398.951 441.249 396.252L629.252 86.0614C630.283 84.3689 630.873 82.4434 630.97 80.4615C631.066 78.4795 630.664 76.5044 629.801 74.7171V74.7171ZM111.427 206.897C110.636 205.257 110.268 203.444 110.357 201.625C110.446 199.806 110.988 198.039 111.935 196.486L299.938 -113.704C301.441 -116.181 303.862 -117.958 306.671 -118.648C309.481 -119.338 312.45 -118.884 314.929 -117.386L624.728 70.5391C626.537 71.6339 627.99 73.2336 628.907 75.1423C629.698 76.7836 630.066 78.5969 629.977 80.4165C629.889 82.236 629.346 84.0036 628.4 85.5577L440.397 395.748C438.891 398.225 436.468 400.004 433.657 400.695C430.845 401.386 427.874 400.933 425.391 399.436L115.592 211.511C113.785 210.413 112.337 208.809 111.427 206.897V206.897Z" fill="#46AF87"/>
<path opacity="0.8" d="M626.662 63.2235C625.668 61.1456 624.075 59.4143 622.088 58.2543L317.825 -120.786C315.166 -122.341 312.003 -122.779 309.026 -122.004C306.049 -121.229 303.501 -119.304 301.937 -116.65L122.82 187.986C122.048 189.3 121.542 190.753 121.332 192.264C121.121 193.775 121.21 195.312 121.594 196.789C121.977 198.266 122.647 199.653 123.566 200.871C124.485 202.088 125.634 203.112 126.947 203.884L431.208 382.916C433.866 384.475 437.031 384.916 440.01 384.142C442.989 383.369 445.539 381.443 447.102 378.787L626.206 74.1521C627.173 72.5098 627.72 70.6532 627.8 68.7469C627.88 66.8406 627.489 64.9434 626.662 63.2235ZM123.241 198.492C122.478 196.916 122.115 195.177 122.184 193.428C122.254 191.679 122.753 189.974 123.638 188.466L302.774 -116.159C304.205 -118.591 306.539 -120.356 309.266 -121.067C311.993 -121.778 314.892 -121.378 317.328 -119.954L621.589 59.0783C623.407 60.1447 624.867 61.7311 625.78 63.6339C626.538 65.2073 626.897 66.9432 626.826 68.6878C626.755 70.4324 626.256 72.1319 625.373 73.6359L446.263 378.278C444.831 380.712 442.495 382.476 439.767 383.185C437.038 383.894 434.138 383.49 431.703 382.061L127.431 203.044C125.612 201.98 124.152 200.395 123.241 198.492V198.492Z" fill="#46AF87"/>
<path opacity="0.8" d="M623.526 51.7335C622.535 49.6566 620.931 47.9348 618.931 46.8017L320.206 -123.346C318.914 -124.084 317.489 -124.56 316.014 -124.744C314.539 -124.928 313.042 -124.818 311.61 -124.42C310.176 -124.029 308.833 -123.358 307.659 -122.446C306.484 -121.533 305.502 -120.397 304.767 -119.102L134.526 180.003C133.792 181.294 133.319 182.718 133.136 184.194C132.952 185.67 133.061 187.168 133.456 188.602C133.851 190.036 134.525 191.378 135.438 192.552C136.352 193.725 137.487 194.706 138.779 195.439L437.501 365.578C440.115 367.055 443.204 367.436 446.095 366.639C448.985 365.841 451.442 363.929 452.929 361.32L623.158 62.2307C624.061 60.6422 624.566 58.8575 624.63 57.0293C624.694 55.2011 624.316 53.384 623.526 51.7335V51.7335ZM135.053 190.088C134.329 188.578 133.982 186.914 134.04 185.24C134.099 183.566 134.562 181.932 135.389 180.478L305.616 -118.615C306.284 -119.798 307.18 -120.836 308.251 -121.67C309.322 -122.504 310.547 -123.117 311.855 -123.474C313.165 -123.84 314.535 -123.942 315.885 -123.774C317.236 -123.606 318.54 -123.172 319.722 -122.495L618.444 47.6439C620.271 48.6791 621.738 50.2513 622.646 52.1479C623.37 53.6586 623.717 55.3222 623.659 56.9961C623.6 58.6699 623.137 60.304 622.31 61.7581L452.081 360.848C450.721 363.231 448.474 364.977 445.832 365.703C443.19 366.43 440.367 366.078 437.979 364.726L139.253 194.588C137.429 193.552 135.963 191.982 135.053 190.088V190.088Z" fill="#46AF87"/>
<path opacity="0.8" d="M620.394 40.2326C619.403 38.1596 617.786 36.4512 615.773 35.3495L322.59 -125.897C321.32 -126.602 319.924 -127.046 318.483 -127.206C317.041 -127.365 315.583 -127.236 314.192 -126.826C312.799 -126.426 311.499 -125.753 310.368 -124.846C309.237 -123.939 308.296 -122.815 307.601 -121.541L146.259 171.985C145.56 173.253 145.118 174.647 144.958 176.088C144.798 177.528 144.923 178.987 145.327 180.379C145.73 181.772 146.404 183.071 147.309 184.203C148.214 185.335 149.333 186.276 150.602 186.974L443.802 348.26C446.369 349.668 449.387 350 452.195 349.183C455.003 348.367 457.372 346.468 458.785 343.902L620.109 50.3231C620.952 48.7856 621.418 47.0686 621.467 45.314C621.517 43.5594 621.149 41.8176 620.394 40.2326V40.2326ZM146.868 181.683C146.175 180.237 145.837 178.647 145.881 177.044C145.925 175.442 146.35 173.873 147.121 172.47L308.457 -121.072C309.091 -122.232 309.948 -123.256 310.978 -124.083C312.008 -124.909 313.192 -125.524 314.461 -125.89C315.727 -126.262 317.055 -126.379 318.368 -126.235C319.681 -126.091 320.953 -125.687 322.11 -125.049L615.293 36.1979C617.134 37.1957 618.616 38.7485 619.528 40.6363C620.217 42.0854 620.552 43.6779 620.505 45.2817C620.457 46.8855 620.029 48.4543 619.256 49.8579L457.913 343.416C456.625 345.755 454.465 347.485 451.906 348.229C449.346 348.973 446.596 348.67 444.256 347.385L151.073 186.139C149.24 185.133 147.768 183.574 146.868 181.683Z" fill="#46AF87"/>
<path opacity="0.8" d="M617.257 28.7389C616.267 26.6664 614.636 24.9692 612.607 23.9006L324.963 -128.453C322.442 -129.789 319.498 -130.069 316.775 -129.232C314.052 -128.394 311.773 -126.508 310.438 -123.986L157.987 164.011C157.204 165.498 156.778 167.149 156.745 168.831C156.712 170.513 157.072 172.18 157.797 173.699C158.783 175.774 160.412 177.473 162.44 178.545L450.084 330.899C452.605 332.233 455.55 332.511 458.272 331.672C460.994 330.834 463.272 328.946 464.606 326.424L617.057 38.4269C617.842 36.9406 618.268 35.2905 618.303 33.6082C618.338 31.926 617.979 30.2585 617.257 28.7389V28.7389ZM158.686 173.272C158.027 171.891 157.699 170.375 157.729 168.846C157.759 167.316 158.146 165.815 158.859 164.464L311.298 -123.528C312.514 -125.818 314.584 -127.531 317.058 -128.294C319.531 -129.056 322.207 -128.806 324.5 -127.598L612.148 24.7541C613.991 25.7262 615.47 27.2693 616.366 29.1528C617.026 30.5342 617.353 32.0506 617.324 33.5807C617.294 35.1109 616.907 36.6123 616.195 37.9651L463.744 325.962C462.531 328.254 460.46 329.97 457.986 330.733C455.511 331.495 452.834 331.243 450.542 330.032L162.898 177.678C161.053 176.707 159.571 175.162 158.674 173.277L158.686 173.272Z" fill="#46AF87"/>
<path opacity="0.8" d="M614.126 17.242C613.142 15.1693 611.5 13.482 609.457 12.4449L327.343 -131.013C326.117 -131.638 324.781 -132.014 323.41 -132.118C322.039 -132.223 320.662 -132.054 319.358 -131.621C318.051 -131.202 316.84 -130.528 315.795 -129.636C314.75 -128.745 313.892 -127.655 313.27 -126.429L169.706 156.017C169.081 157.24 168.703 158.575 168.594 159.945C168.485 161.316 168.647 162.695 169.071 164.003C169.495 165.311 170.172 166.523 171.064 167.568C171.956 168.614 173.045 169.473 174.269 170.096L456.383 313.554C458.86 314.803 461.729 315.019 464.363 314.155C466.996 313.292 469.181 311.418 470.439 308.944L614.023 26.5222C614.759 25.091 615.152 23.5068 615.17 21.8958C615.188 20.2847 614.83 18.6912 614.126 17.242V17.242ZM170.489 164.895C169.853 163.58 169.53 162.136 169.546 160.676C169.563 159.216 169.917 157.78 170.583 156.482L314.137 -125.988C314.703 -127.099 315.482 -128.087 316.429 -128.895C317.376 -129.703 318.474 -130.316 319.658 -130.699C320.843 -131.093 322.095 -131.248 323.341 -131.152C324.586 -131.057 325.801 -130.714 326.914 -130.144L609.028 13.3138C610.884 14.2486 612.377 15.7757 613.272 17.6542C613.906 18.9724 614.225 20.4201 614.204 21.8824C614.183 23.3447 613.822 24.7816 613.151 26.0791L469.588 308.529C468.446 310.772 466.463 312.469 464.074 313.249C461.684 314.029 459.083 313.829 456.838 312.692L174.724 169.235C172.873 168.297 171.384 166.771 170.489 164.895Z" fill="#46AF87"/>
<path opacity="0.8" d="M610.999 5.74307C610.012 3.66993 608.347 1.99758 606.28 1.00483L329.713 -133.563C328.512 -134.154 327.206 -134.499 325.871 -134.578C324.537 -134.658 323.2 -134.471 321.939 -134.028C320.672 -133.598 319.502 -132.921 318.499 -132.035C317.495 -131.15 316.676 -130.073 316.091 -128.867L181.42 148.011C180.834 149.212 180.49 150.518 180.409 151.854C180.328 153.189 180.51 154.528 180.947 155.793C181.383 157.058 182.064 158.224 182.952 159.225C183.839 160.226 184.914 161.042 186.116 161.625L462.684 296.193C465.114 297.375 467.911 297.544 470.462 296.661C473.013 295.778 475.11 293.917 476.291 291.485L610.974 14.6144C611.65 13.2355 612.003 11.72 612.007 10.1829C612.012 8.64588 611.667 7.12756 610.999 5.74307ZM182.283 156.474C181.68 155.223 181.368 153.85 181.372 152.46C181.376 151.07 181.695 149.7 182.306 148.453L316.978 -128.445C317.503 -129.532 318.238 -130.504 319.139 -131.305C320.041 -132.107 321.091 -132.722 322.231 -133.115C323.371 -133.514 324.58 -133.682 325.787 -133.609C326.993 -133.537 328.174 -133.226 329.26 -132.694L605.828 1.87424C607.692 2.77284 609.195 4.2819 610.088 6.15181C610.692 7.40303 611.005 8.77544 611.002 10.1649C610.998 11.5544 610.68 12.9245 610.069 14.1712L475.419 291.074C474.354 293.278 472.459 294.966 470.15 295.768C467.842 296.569 465.309 296.419 463.109 295.349L186.542 160.781C184.672 159.877 183.168 158.357 182.283 156.474Z" fill="#46AF87"/>
<path opacity="0.8" d="M607.874 -5.75558C606.883 -7.83074 605.199 -9.49405 603.115 -10.4576L332.086 -136.133C330.905 -136.681 329.629 -136.99 328.329 -137.044C327.03 -137.097 325.733 -136.893 324.513 -136.444C323.292 -135.999 322.171 -135.317 321.214 -134.435C320.257 -133.554 319.485 -132.491 318.94 -131.308L193.15 140.037C192.603 141.216 192.293 142.492 192.239 143.791C192.184 145.091 192.387 146.389 192.834 147.611C193.281 148.832 193.964 149.954 194.844 150.911C195.724 151.868 196.783 152.642 197.962 153.188L468.991 278.864C471.375 279.968 474.098 280.08 476.562 279.176C479.026 278.271 481.031 276.424 482.137 274.039L607.93 2.70126C608.547 1.37664 608.862 -0.0694487 608.853 -1.53217C608.843 -2.99489 608.509 -4.43757 607.874 -5.75558ZM194.088 148.074C193.515 146.886 193.212 145.585 193.203 144.265C193.194 142.946 193.478 141.641 194.036 140.447L319.831 -130.887C320.323 -131.955 321.022 -132.915 321.887 -133.71C322.752 -134.505 323.767 -135.12 324.872 -135.518C325.966 -135.925 327.13 -136.111 328.297 -136.065C329.464 -136.02 330.611 -135.743 331.671 -135.252L602.705 -9.57794C604.578 -8.70849 606.093 -7.21358 606.99 -5.34906C607.562 -4.15985 607.864 -2.8583 607.872 -1.53876C607.88 -0.219223 607.596 1.08525 607.039 2.28016L481.261 273.644C480.264 275.793 478.456 277.458 476.235 278.274C474.014 279.089 471.56 278.989 469.41 277.994L198.381 152.319C196.501 151.448 194.983 149.946 194.088 148.074V148.074Z" fill="#46AF87"/>
<path opacity="0.8" d="M604.754 -17.262C603.757 -19.3318 602.059 -20.979 599.962 -21.908L334.471 -138.691C333.314 -139.199 332.068 -139.472 330.805 -139.496C329.543 -139.519 328.288 -139.291 327.114 -138.826C325.937 -138.372 324.862 -137.688 323.95 -136.814C323.038 -135.941 322.308 -134.895 321.802 -133.736L204.871 132.047C204.362 133.204 204.087 134.451 204.061 135.716C204.034 136.98 204.257 138.238 204.717 139.417C205.177 140.595 205.865 141.672 206.74 142.584C207.616 143.496 208.663 144.225 209.82 144.731L475.308 261.552C477.648 262.573 480.295 262.624 482.67 261.695C485.045 260.766 486.956 258.933 487.986 256.595L604.883 -9.2027C605.443 -10.4749 605.722 -11.8541 605.699 -13.2454C605.677 -14.6366 605.354 -16.0069 604.754 -17.262ZM205.88 139.669C205.337 138.542 205.046 137.311 205.025 136.061C205.004 134.81 205.254 133.571 205.758 132.428L322.663 -133.363C323.119 -134.406 323.776 -135.347 324.596 -136.134C325.417 -136.92 326.385 -137.535 327.444 -137.944C328.5 -138.36 329.629 -138.561 330.764 -138.536C331.899 -138.511 333.018 -138.261 334.056 -137.8L599.547 -21.017C601.436 -20.1884 602.966 -18.7086 603.86 -16.8464C604.4 -15.7196 604.69 -14.4892 604.711 -13.2399C604.731 -11.9905 604.482 -10.7519 603.979 -9.60908L487.093 256.202C486.165 258.303 484.446 259.949 482.31 260.782C480.174 261.614 477.796 261.566 475.693 260.646L210.203 143.863C208.308 143.032 206.774 141.544 205.882 139.673L205.88 139.669Z" fill="#46AF87"/>
<path opacity="0.8" d="M601.635 -28.7637C600.637 -30.8371 598.912 -32.4697 596.79 -33.3491L336.838 -141.239C334.547 -142.193 331.974 -142.201 329.68 -141.259C327.386 -140.318 325.559 -138.504 324.596 -136.214L216.584 124.038C216.112 125.173 215.868 126.39 215.867 127.62C215.866 128.85 216.107 130.068 216.576 131.205C217.046 132.342 217.734 133.375 218.603 134.245C219.471 135.115 220.502 135.804 221.636 136.274L481.588 244.164C483.883 245.113 486.457 245.113 488.749 244.164C491.041 243.216 492.864 241.396 493.819 239.102L601.827 -21.149C602.329 -22.3603 602.57 -23.664 602.537 -24.9756C602.504 -26.2873 602.197 -27.5778 601.635 -28.7637V-28.7637ZM217.677 131.276C217.167 130.212 216.887 129.052 216.855 127.872C216.823 126.692 217.039 125.519 217.49 124.429L325.503 -135.823C326.361 -137.872 327.993 -139.497 330.042 -140.345C332.092 -141.192 334.394 -141.194 336.446 -140.349L596.41 -32.4638C598.311 -31.6767 599.856 -30.2135 600.748 -28.3555C601.258 -27.2908 601.539 -26.1301 601.57 -24.9497C601.602 -23.7693 601.384 -22.5959 600.931 -21.5066L492.922 238.744C492.065 240.797 490.431 242.425 488.379 243.274C486.327 244.123 484.021 244.123 481.967 243.275L222.015 135.385C220.114 134.597 218.57 133.134 217.677 131.276V131.276Z" fill="#46AF87"/>
<path opacity="0.8" d="M598.521 -40.2678C597.524 -42.3469 595.774 -43.9677 593.628 -44.8001L339.204 -143.821C336.956 -144.691 334.456 -144.634 332.252 -143.663C330.047 -142.692 328.317 -140.885 327.437 -138.638L228.314 116.068C227.878 117.18 227.666 118.367 227.69 119.562C227.715 120.757 227.975 121.935 228.455 123.03C228.935 124.124 229.627 125.113 230.49 125.938C231.352 126.764 232.369 127.411 233.482 127.841L487.904 226.858C490.153 227.728 492.652 227.671 494.857 226.7C497.061 225.729 498.792 223.923 499.671 221.675L598.8 -33.0189C599.25 -34.1814 599.458 -35.4245 599.41 -36.6713C599.362 -37.9181 599.059 -39.1422 598.521 -40.2678ZM229.47 122.885C228.99 121.881 228.72 120.79 228.677 119.678C228.634 118.566 228.82 117.457 229.222 116.421L328.34 -138.288C329.126 -140.294 330.672 -141.906 332.64 -142.773C334.609 -143.639 336.841 -143.69 338.848 -142.913L593.272 -43.892C595.19 -43.1488 596.753 -41.6991 597.642 -39.8397C598.123 -38.8362 598.393 -37.7445 598.436 -36.6325C598.478 -35.5205 598.292 -34.4118 597.89 -33.3754L498.767 221.321C497.981 223.327 496.435 224.94 494.466 225.806C492.498 226.673 490.266 226.723 488.258 225.946L233.836 126.929C231.919 126.187 230.357 124.739 229.469 122.881L229.47 122.885Z" fill="#46AF87"/>
<path opacity="0.8" d="M595.418 -51.7535C594.422 -53.8408 592.643 -55.4497 590.47 -56.2293L341.576 -146.377C340.486 -146.776 339.328 -146.954 338.169 -146.901C337.01 -146.848 335.874 -146.565 334.825 -146.068C333.774 -145.579 332.83 -144.886 332.048 -144.029C331.265 -143.173 330.66 -142.169 330.267 -141.076L240.034 108.078C239.639 109.168 239.463 110.326 239.516 111.485C239.569 112.644 239.849 113.782 240.342 114.833C240.834 115.883 241.528 116.827 242.384 117.608C243.241 118.39 244.242 118.995 245.332 119.388L494.208 209.515C496.411 210.307 498.836 210.194 500.954 209.199C503.071 208.205 504.709 206.41 505.51 204.207L595.75 -44.9402C596.151 -46.0398 596.329 -47.2093 596.272 -48.3796C596.215 -49.5498 595.925 -50.6971 595.418 -51.7535ZM241.26 114.509C240.805 113.567 240.544 112.543 240.493 111.498C240.441 110.453 240.6 109.409 240.96 108.428L331.186 -140.742C331.535 -141.715 332.072 -142.609 332.768 -143.371C333.464 -144.134 334.304 -144.751 335.24 -145.185C336.172 -145.626 337.183 -145.878 338.213 -145.925C339.243 -145.972 340.273 -145.814 341.243 -145.46L590.128 -55.3319C592.061 -54.6378 593.643 -53.2063 594.529 -51.3493C594.985 -50.4081 595.247 -49.3846 595.299 -48.3399C595.351 -47.2953 595.193 -46.2511 594.832 -45.2701L504.598 203.88C503.885 205.839 502.427 207.435 500.543 208.319C498.659 209.203 496.501 209.303 494.541 208.598L245.656 118.47C243.722 117.777 242.139 116.346 241.251 114.489L241.26 114.509Z" fill="#46AF87"/>
<path opacity="0.8" d="M592.303 -63.2805C591.809 -64.3189 591.111 -65.2464 590.249 -66.0071C589.388 -66.7677 588.382 -67.3456 587.292 -67.7059L343.947 -148.937C341.79 -149.652 339.439 -149.483 337.407 -148.468C335.375 -147.452 333.828 -145.672 333.101 -143.515L251.753 100.094C251.396 101.162 251.253 102.289 251.332 103.413C251.41 104.537 251.71 105.634 252.212 106.642C252.715 107.65 253.411 108.549 254.261 109.287C255.11 110.025 256.097 110.588 257.163 110.943L500.516 192.18C502.674 192.894 505.025 192.723 507.056 191.706C509.087 190.689 510.634 188.908 511.358 186.75L592.706 -56.8493C593.417 -58.962 593.272 -61.2712 592.303 -63.2805ZM253.03 106.085C252.173 104.305 252.045 102.261 252.675 100.39L334.03 -143.204C334.671 -145.116 336.041 -146.695 337.841 -147.596C339.641 -148.496 341.725 -148.646 343.636 -148.011L586.983 -66.7756C587.95 -66.4589 588.842 -65.9479 589.605 -65.2741C590.368 -64.6002 590.987 -63.7775 591.422 -62.8564C592.28 -61.0767 592.408 -59.0315 591.777 -57.1606L510.43 186.439C509.788 188.352 508.418 189.931 506.617 190.832C504.816 191.733 502.732 191.883 500.819 191.248L257.472 110.013C256.505 109.694 255.613 109.181 254.849 108.506C254.086 107.831 253.467 107.007 253.03 106.085Z" fill="#46AF87"/>
<path opacity="0.8" d="M589.205 -74.7912C588.705 -75.83 587.996 -76.7539 587.122 -77.5044C586.248 -78.2548 585.229 -78.8155 584.128 -79.151L346.319 -151.497C345.272 -151.818 344.173 -151.928 343.085 -151.822C341.997 -151.715 340.941 -151.394 339.977 -150.876C339.008 -150.365 338.151 -149.666 337.454 -148.819C336.756 -147.973 336.234 -146.997 335.916 -145.946L263.475 92.1043C263.157 93.1497 263.048 94.248 263.154 95.3363C263.26 96.4247 263.579 97.4816 264.094 98.4465C264.608 99.4114 265.307 100.265 266.151 100.959C266.994 101.653 267.966 102.174 269.01 102.491L506.822 174.841C508.934 175.481 511.212 175.258 513.157 174.219C515.103 173.18 516.558 171.411 517.205 169.298L589.658 -68.7667C590.269 -70.7595 590.107 -72.9108 589.205 -74.7912V-74.7912ZM264.811 97.7086C264.016 96.0477 263.873 94.1488 264.411 92.3889L336.868 -145.668C337.148 -146.593 337.607 -147.453 338.22 -148.199C338.833 -148.944 339.587 -149.561 340.439 -150.013C341.29 -150.47 342.222 -150.753 343.182 -150.847C344.143 -150.941 345.113 -150.843 346.036 -150.56L583.844 -78.2173C584.815 -77.9198 585.714 -77.4241 586.485 -76.7615C587.256 -76.0988 587.882 -75.2836 588.324 -74.3671C589.119 -72.7062 589.262 -70.8072 588.724 -69.0474L516.277 169.001C515.706 170.865 514.422 172.426 512.705 173.343C510.989 174.26 508.979 174.458 507.115 173.895L269.295 101.557C268.323 101.261 267.423 100.766 266.651 100.104C265.879 99.4412 265.253 98.6257 264.811 97.7086V97.7086Z" fill="#46AF87"/>
<path opacity="0.8" d="M586.109 -86.3073C585.609 -87.355 584.889 -88.2825 583.999 -89.0265C583.108 -89.7704 582.069 -90.3132 580.951 -90.618L348.691 -154.044C347.668 -154.332 346.599 -154.414 345.545 -154.285C344.491 -154.156 343.473 -153.818 342.551 -153.292C341.628 -152.767 340.818 -152.063 340.169 -151.221C339.52 -150.379 339.044 -149.416 338.768 -148.388L275.198 84.1186C274.918 85.141 274.841 86.2092 274.973 87.262C275.105 88.3148 275.442 89.3314 275.967 90.2536C276.491 91.1758 277.191 91.9855 278.028 92.6363C278.865 93.287 279.821 93.7661 280.842 94.0459L513.113 157.5C515.179 158.063 517.382 157.785 519.241 156.725C521.101 155.665 522.465 153.91 523.036 151.844L586.61 -80.6646C587.126 -82.5437 586.948 -84.5473 586.109 -86.3073V-86.3073ZM276.581 89.318C275.843 87.7792 275.684 86.0255 276.134 84.38L339.711 -148.13C339.954 -149.029 340.371 -149.872 340.94 -150.608C341.509 -151.345 342.218 -151.961 343.026 -152.421C343.833 -152.887 344.725 -153.188 345.65 -153.306C346.574 -153.423 347.513 -153.356 348.412 -153.108L580.686 -89.6503C581.668 -89.385 582.581 -88.9104 583.364 -88.2591C584.147 -87.6077 584.781 -86.7948 585.222 -85.8759C585.957 -84.3354 586.114 -82.582 585.666 -80.9362L522.096 151.57C521.593 153.385 520.394 154.926 518.762 155.858C517.129 156.79 515.195 157.037 513.38 156.546L281.12 93.1196C280.136 92.8505 279.22 92.3716 278.437 91.7154C277.654 91.0593 277.021 90.2415 276.581 89.318V89.318Z" fill="#46AF87"/>
<path opacity="0.8" d="M583.018 -97.8215C582.515 -98.8733 581.785 -99.7992 580.879 -100.532C579.974 -101.264 578.917 -101.784 577.785 -102.054L351.056 -156.616C349.035 -157.098 346.907 -156.759 345.137 -155.674C343.366 -154.589 342.096 -152.845 341.604 -150.824L286.932 76.1275C286.692 77.128 286.65 78.1667 286.81 79.1839C286.97 80.2011 287.329 81.1768 287.866 82.0553C288.403 82.9337 289.107 83.6976 289.939 84.3031C290.77 84.9085 291.713 85.3437 292.712 85.5837L519.43 140.155C521.451 140.637 523.579 140.299 525.35 139.213C527.121 138.128 528.391 136.385 528.883 134.363L583.554 -92.5883C583.979 -94.342 583.79 -96.1896 583.018 -97.8215V-97.8215ZM288.35 80.9367C287.668 79.5124 287.497 77.8965 287.865 76.3617L342.536 -150.589C342.967 -152.359 344.078 -153.885 345.628 -154.836C347.178 -155.786 349.04 -156.082 350.809 -155.661L577.56 -101.103C578.55 -100.867 579.475 -100.412 580.267 -99.7707C581.059 -99.1295 581.698 -98.3185 582.137 -97.3974C582.815 -95.9722 582.986 -94.3575 582.621 -92.8225L527.95 134.129C527.519 135.898 526.407 137.424 524.857 138.373C523.307 139.322 521.445 139.618 519.676 139.196L292.927 84.642C291.937 84.4056 291.012 83.95 290.22 83.3089C289.428 82.6677 288.789 81.8572 288.35 80.9367V80.9367Z" fill="#46AF87"/>
<path opacity="0.8" d="M579.934 -109.343C579.431 -110.402 578.688 -111.33 577.765 -112.051C576.842 -112.773 575.764 -113.269 574.617 -113.501L353.424 -159.175C351.449 -159.579 349.395 -159.183 347.712 -158.075C346.028 -156.966 344.851 -155.234 344.437 -153.257L298.632 68.1614C298.43 69.1395 298.422 70.1484 298.609 71.1302C298.797 72.112 299.175 73.0473 299.724 73.8825C300.272 74.7177 300.979 75.4364 301.805 75.9974C302.631 76.5584 303.559 76.9506 304.535 77.1515L525.742 122.815C527.716 123.217 529.769 122.822 531.452 121.714C533.134 120.605 534.311 118.875 534.725 116.899L580.53 -104.52C580.868 -106.149 580.659 -107.845 579.934 -109.343V-109.343ZM300.091 72.5633C299.462 71.2553 299.283 69.7757 299.581 68.3559L345.386 -153.063C345.745 -154.787 346.771 -156.296 348.239 -157.263C349.707 -158.229 351.498 -158.573 353.22 -158.219L574.422 -112.544C575.421 -112.342 576.36 -111.909 577.165 -111.28C577.969 -110.651 578.617 -109.843 579.057 -108.921C579.686 -107.612 579.865 -106.133 579.567 -104.713L533.763 116.705C533.403 118.43 532.376 119.94 530.907 120.907C529.439 121.873 527.647 122.217 525.925 121.863L304.741 76.186C303.738 75.9866 302.796 75.5552 301.989 74.9262C301.181 74.2972 300.532 73.4881 300.091 72.5633V72.5633Z" fill="#46AF87"/>
<path opacity="0.8" d="M576.858 -120.864C576.346 -121.929 575.587 -122.856 574.645 -123.567C573.703 -124.278 572.605 -124.753 571.444 -124.952L355.79 -161.733C353.86 -162.061 351.881 -161.609 350.285 -160.477C348.688 -159.345 347.605 -157.625 347.271 -155.693L310.36 60.1682C310.196 61.1238 310.222 62.1028 310.437 63.0488C310.652 63.9949 311.051 64.8893 311.611 65.6808C312.171 66.4724 312.882 67.1454 313.702 67.6612C314.522 68.177 315.435 68.5255 316.389 68.6867L532.048 105.47C533.978 105.796 535.957 105.344 537.553 104.212C539.149 103.081 540.232 101.361 540.567 99.4296L577.478 -116.431C577.737 -117.937 577.52 -119.487 576.858 -120.864ZM311.859 64.1821C311.282 62.9868 311.094 61.6398 311.324 60.3328L348.23 -155.53C348.521 -157.207 349.462 -158.699 350.848 -159.681C352.233 -160.662 353.951 -161.054 355.625 -160.771L571.275 -123.988C572.284 -123.815 573.237 -123.403 574.055 -122.786C574.873 -122.168 575.532 -121.364 575.977 -120.44C576.55 -119.244 576.735 -117.898 576.506 -116.593L539.601 99.2707C539.31 100.947 538.37 102.438 536.985 103.42C535.6 104.401 533.883 104.793 532.209 104.51L316.554 67.7245C315.546 67.5529 314.594 67.1416 313.777 66.5253C312.961 65.9089 312.303 65.1054 311.859 64.1821V64.1821Z" fill="#46AF87"/>
<path opacity="0.8" d="M573.769 -132.383C573.257 -133.46 572.483 -134.391 571.52 -135.091C570.556 -135.791 569.433 -136.238 568.254 -136.391L358.153 -164.29C356.269 -164.537 354.366 -164.028 352.858 -162.873C351.35 -161.719 350.36 -160.012 350.103 -158.127L322.084 52.1863C321.959 53.1197 322.019 54.069 322.26 54.9797C322.502 55.8903 322.921 56.7444 323.493 57.4927C324.064 58.241 324.778 58.8689 325.592 59.3401C326.406 59.8114 327.305 60.1168 328.237 60.2388L538.339 88.1282C540.222 88.3767 542.126 87.8679 543.634 86.713C545.143 85.5581 546.133 83.851 546.389 81.9647L574.43 -128.349C574.606 -129.729 574.377 -131.131 573.769 -132.383V-132.383ZM323.603 55.8072C323.083 54.7227 322.89 53.51 323.048 52.3181L351.071 -157.996C351.292 -159.625 352.148 -161.1 353.451 -162.097C354.753 -163.094 356.398 -163.534 358.024 -163.32L568.143 -135.433C569.161 -135.298 570.129 -134.91 570.96 -134.304C571.791 -133.698 572.458 -132.894 572.9 -131.964C573.419 -130.88 573.612 -129.667 573.454 -128.475L545.432 81.8392C545.212 83.4687 544.356 84.9436 543.053 85.9412C541.75 86.9388 540.105 87.3779 538.479 87.1626L328.369 59.2766C327.349 59.1436 326.378 58.7563 325.546 58.1502C324.713 57.544 324.045 56.7385 323.603 55.8072V55.8072Z" fill="#46AF87"/>
<path opacity="0.8" d="M570.714 -143.917C570.189 -145 569.395 -145.931 568.408 -146.618C567.422 -147.305 566.275 -147.726 565.079 -147.84L360.497 -166.838C358.665 -167.002 356.843 -166.434 355.427 -165.259C354.012 -164.083 353.116 -162.395 352.936 -160.56L333.822 44.1995C333.736 45.1106 333.83 46.03 334.1 46.9049C334.369 47.7798 334.809 48.5929 335.393 49.2973C335.976 50.0018 336.694 50.5836 337.502 51.0095C338.311 51.4353 339.196 51.6967 340.105 51.7786L544.689 70.7803C546.527 70.9494 548.356 70.3822 549.776 69.2026C551.196 68.0231 552.091 66.3272 552.267 64.4859L571.382 -140.27C571.492 -141.523 571.261 -142.783 570.714 -143.917V-143.917ZM335.313 47.4379C334.844 46.4598 334.652 45.372 334.756 44.2926L353.912 -160.466C354.069 -162.046 354.841 -163.5 356.061 -164.512C357.28 -165.524 358.849 -166.013 360.427 -165.874L565.009 -146.876C566.039 -146.786 567.029 -146.427 567.878 -145.835C568.728 -145.243 569.409 -144.438 569.852 -143.501C570.32 -142.524 570.513 -141.439 570.412 -140.361L551.277 64.4028C551.127 65.9859 550.357 67.4441 549.136 68.4583C547.916 69.4725 546.343 69.9602 544.763 69.8146L340.179 50.8129C339.15 50.723 338.161 50.3644 337.312 49.7729C336.462 49.1815 335.782 48.3776 335.338 47.4414L335.313 47.4379Z" fill="#46AF87"/>
<path opacity="0.8" d="M567.678 -155.464C567.153 -156.562 566.341 -157.498 565.329 -158.173C564.317 -158.848 563.142 -159.236 561.929 -159.296L362.879 -169.403C361.092 -169.49 359.345 -168.864 358.017 -167.664C356.689 -166.464 355.889 -164.785 355.791 -162.994L345.529 36.2299C345.482 37.1189 345.612 38.0086 345.909 38.8477C346.207 39.6869 346.667 40.459 347.263 41.1197C347.859 41.7804 348.58 42.3167 349.383 42.6977C350.186 43.0786 351.056 43.2968 351.943 43.3397L550.985 53.4407C552.773 53.528 554.521 52.9031 555.849 51.7025C557.177 50.5018 557.977 48.8228 558.074 47.0316L568.336 -152.193C568.393 -153.321 568.167 -154.446 567.678 -155.464V-155.464ZM347.068 39.0674C346.65 38.1965 346.458 37.2344 346.51 36.2699L356.752 -162.936C356.833 -164.472 357.518 -165.913 358.657 -166.942C359.795 -167.971 361.295 -168.506 362.828 -168.429L561.873 -158.32C562.913 -158.269 563.919 -157.937 564.786 -157.36C565.654 -156.783 566.35 -155.982 566.801 -155.042C567.217 -154.169 567.41 -153.206 567.361 -152.24L557.113 46.9735C557.031 48.5091 556.346 49.9487 555.207 50.9779C554.068 52.007 552.569 52.542 551.037 52.4658L351.989 42.3626C350.949 42.3082 349.943 41.9733 349.077 41.3933C348.211 40.8132 347.517 40.0097 347.068 39.0674V39.0674Z" fill="#46AF87"/>
</svg>
