<svg width="18" height="18" viewBox="0 0 18 18" fill="none" xmlns="http://www.w3.org/2000/svg">
<path d="M15.8572 0H2.14289C0.960031 0 3.05176e-05 0.96 3.05176e-05 2.14286V15.8571C3.05176e-05 17.04 0.960031 18 2.14289 18H15.8572C17.04 18 18 17.04 18 15.8571V2.14286C18 0.96 17.04 0 15.8572 0ZM5.57146 6.85714V15H3.00003V6.85714H5.57146ZM3.00003 4.48714C3.00003 3.88714 3.51432 3.42857 4.28574 3.42857C5.05717 3.42857 5.54146 3.88714 5.57146 4.48714C5.57146 5.08714 5.09146 5.57143 4.28574 5.57143C3.51432 5.57143 3.00003 5.08714 3.00003 4.48714ZM15 15H12.4286C12.4286 15 12.4286 11.0314 12.4286 10.7143C12.4286 9.85714 12 9 10.9286 8.98286H10.8943C9.85717 8.98286 9.4286 9.86571 9.4286 10.7143C9.4286 11.1043 9.4286 15 9.4286 15H6.85717V6.85714H9.4286V7.95429C9.4286 7.95429 10.2557 6.85714 11.9186 6.85714C13.62 6.85714 15 8.02714 15 10.3971V15Z" fill="white"/>
</svg>
