<?xml version="1.0" standalone="no"?>
<!DOCTYPE svg PUBLIC "-//W3C//DTD SVG 20010904//EN"
 "http://www.w3.org/TR/2001/REC-SVG-20010904/DTD/svg10.dtd">
<svg version="1.0" xmlns="http://www.w3.org/2000/svg"
 width="3296.000000pt" height="3296.000000pt" viewBox="0 0 3296.000000 3296.000000"
 preserveAspectRatio="xMidYMid meet">
<metadata>
Created by potrace 1.14, written by Peter Selinger 2001-2017
</metadata>
<g transform="translate(0.000000,3296.000000) scale(0.100000,-0.100000)"
fill="#000000" stroke="none">
<path d="M29049 20315 c-2 -2 -38 -6 -79 -9 -41 -4 -86 -8 -100 -10 -14 -2
-52 -7 -85 -11 -33 -4 -68 -9 -77 -11 -10 -2 -28 -6 -40 -9 -13 -3 -39 -8 -58
-11 -70 -13 -225 -51 -260 -63 -14 -5 -63 -21 -110 -36 -47 -14 -94 -30 -105
-35 -11 -5 -56 -23 -100 -41 -100 -39 -150 -61 -245 -109 -118 -60 -145 -74
-148 -82 -2 -5 -9 -8 -15 -8 -7 0 -40 -18 -75 -40 -34 -22 -67 -40 -72 -40 -6
0 -10 -3 -10 -7 0 -5 -21 -21 -48 -38 -161 -101 -375 -277 -552 -455 -136
-137 -175 -180 -271 -300 -28 -36 -55 -66 -60 -68 -5 -2 -9 -7 -9 -12 0 -5
-37 -59 -81 -122 -45 -62 -84 -120 -87 -128 -3 -8 -10 -19 -14 -25 -23 -28
-68 -101 -68 -112 0 -6 -3 -13 -7 -15 -9 -4 -24 -30 -112 -203 -68 -135 -74
-148 -137 -300 -57 -140 -156 -444 -171 -525 -2 -14 -9 -43 -15 -65 -5 -22
-12 -48 -14 -58 -2 -10 -5 -26 -8 -35 -3 -9 -8 -37 -11 -62 -4 -24 -9 -48 -11
-52 -3 -4 -6 -26 -9 -50 -2 -24 -6 -52 -9 -64 -2 -11 -7 -45 -10 -75 -3 -30
-8 -64 -10 -76 -13 -64 -21 -245 -21 -473 0 -248 7 -380 29 -540 13 -95 18
-126 26 -170 5 -24 6 -48 4 -52 -2 -3 0 -9 6 -13 5 -3 10 -18 10 -33 0 -79
125 -504 208 -707 24 -60 45 -116 45 -122 0 -7 4 -13 9 -13 4 0 8 -6 8 -12 0
-19 138 -290 206 -403 94 -159 260 -397 349 -500 14 -16 47 -55 73 -85 52 -61
255 -266 317 -320 22 -19 67 -57 100 -85 33 -27 62 -52 65 -55 9 -10 152 -112
220 -157 84 -56 86 -57 145 -95 78 -49 382 -201 465 -232 41 -16 89 -35 105
-42 33 -15 87 -32 215 -69 120 -35 148 -42 210 -57 30 -6 57 -13 60 -13 3 -1
28 -5 55 -9 28 -4 57 -10 65 -13 8 -3 31 -7 50 -8 19 -2 53 -6 75 -9 116 -16
190 -20 400 -20 231 0 377 9 485 29 19 4 46 8 60 10 14 1 50 7 80 13 30 7 66
14 80 16 48 10 155 36 180 45 19 7 210 68 240 76 9 3 44 17 90 37 25 11 50 21
55 22 17 5 57 22 123 54 34 17 62 27 62 24 0 -4 4 -2 8 3 4 6 36 25 72 43 96
50 125 66 128 75 2 4 7 7 12 7 14 0 250 150 278 177 8 7 23 18 34 24 11 6 27
17 36 25 9 8 62 51 117 96 106 87 199 173 299 277 33 35 72 75 86 90 30 30
121 139 165 195 17 21 36 45 43 52 6 7 12 15 12 18 0 3 6 14 14 23 34 41 84
113 126 178 25 39 48 72 52 73 5 2 8 8 8 14 0 5 20 42 44 81 97 160 224 427
293 617 48 129 103 301 103 321 0 9 3 19 7 23 4 3 8 13 9 21 1 8 10 44 19 81
19 77 17 67 50 239 32 172 33 175 40 253 4 37 8 81 10 97 18 158 24 544 11
695 -3 36 -8 90 -10 120 -3 30 -7 71 -10 90 -3 19 -8 59 -12 89 -3 30 -8 63
-10 75 -3 12 -7 35 -10 51 -2 17 -7 41 -10 55 -3 14 -8 39 -11 55 -21 133
-142 547 -192 660 -5 11 -26 61 -46 110 -107 259 -267 544 -439 780 -62 86
-67 92 -86 113 -8 10 -26 33 -40 52 -14 19 -32 42 -40 51 -8 9 -53 58 -100
109 -134 147 -300 304 -395 374 -22 17 -42 33 -45 36 -25 29 -253 187 -375
259 -49 29 -97 56 -105 61 -35 22 -205 103 -206 99 -1 -2 -12 5 -24 16 -12 11
-24 19 -26 17 -2 -1 -21 5 -42 14 -91 40 -362 136 -362 128 0 -2 -13 2 -29 10
-16 9 -31 13 -34 10 -3 -3 -12 -2 -19 2 -7 5 -17 9 -23 11 -5 1 -19 4 -30 7
-82 19 -224 48 -249 51 -17 2 -44 5 -61 8 -36 6 -124 18 -180 24 -52 6 -512
13 -516 8z m526 -419 c68 -10 109 -16 135 -21 14 -2 37 -6 52 -9 88 -15 196
-38 218 -46 14 -6 34 -11 45 -13 11 -2 27 -6 35 -9 8 -3 47 -15 85 -27 39 -12
86 -28 105 -35 164 -66 207 -85 293 -127 114 -56 290 -158 295 -171 2 -4 8 -8
13 -8 6 0 51 -30 101 -66 98 -70 144 -106 267 -209 45 -38 246 -241 296 -299
28 -32 57 -67 66 -77 8 -10 24 -30 35 -44 10 -15 24 -32 29 -39 25 -27 125
-167 125 -174 0 -5 9 -17 20 -27 11 -10 20 -24 20 -32 0 -7 3 -13 8 -13 4 0
12 -9 17 -20 6 -10 37 -65 70 -122 67 -115 145 -272 195 -393 18 -44 40 -95
48 -114 8 -18 15 -39 17 -45 1 -6 5 -19 8 -28 11 -28 18 -53 18 -56 -1 -1 5
-18 13 -37 9 -20 16 -39 17 -43 1 -4 3 -11 5 -17 23 -78 72 -268 80 -315 2
-14 7 -36 10 -50 3 -14 7 -32 9 -40 3 -17 24 -157 31 -210 3 -19 7 -46 9 -60
24 -131 24 -670 0 -840 -2 -14 -6 -47 -10 -75 -3 -27 -8 -61 -11 -75 -25 -152
-38 -217 -56 -285 -11 -44 -22 -90 -24 -102 -2 -12 -8 -33 -13 -45 -5 -13 -9
-26 -10 -31 0 -4 -11 -40 -23 -80 -12 -39 -23 -74 -23 -77 -1 -3 -4 -12 -8
-20 -3 -8 -15 -42 -27 -74 -35 -98 -99 -245 -158 -361 -30 -60 -60 -120 -66
-132 -6 -13 -14 -23 -18 -23 -5 0 -8 -5 -8 -12 0 -11 -77 -146 -90 -158 -3 -3
-23 -32 -44 -65 -160 -247 -427 -539 -669 -732 -39 -32 -73 -61 -75 -65 -2 -5
-10 -8 -18 -8 -8 0 -14 -3 -14 -7 0 -5 -12 -16 -28 -25 -15 -9 -56 -37 -92
-62 -36 -25 -71 -46 -77 -46 -7 0 -13 -4 -13 -8 0 -5 -21 -20 -47 -33 -27 -13
-50 -27 -53 -30 -10 -13 -268 -138 -360 -174 -101 -39 -229 -83 -269 -91 -14
-3 -28 -7 -33 -10 -4 -3 -16 -7 -25 -9 -10 -3 -38 -9 -63 -16 -25 -6 -56 -13
-70 -15 -14 -2 -36 -7 -50 -9 -32 -7 -68 -14 -100 -20 -34 -7 -182 -24 -255
-30 -130 -10 -388 -5 -500 10 -22 3 -58 8 -80 10 -59 5 -109 14 -210 36 -49
11 -101 22 -115 25 -14 3 -63 17 -110 31 -47 15 -88 26 -92 25 -5 -1 -8 3 -8
10 0 6 -3 9 -6 5 -6 -6 -130 37 -204 70 -112 50 -272 131 -318 160 -29 18 -55
33 -58 33 -3 0 -32 18 -64 40 -32 22 -61 40 -64 40 -3 0 -14 7 -23 15 -10 8
-59 45 -110 82 -50 37 -115 88 -145 113 -67 56 -342 331 -385 385 -97 122
-124 158 -180 235 -73 103 -203 313 -203 329 0 6 -4 11 -10 11 -5 0 -10 9 -10
19 0 11 -3 21 -7 23 -17 7 -128 248 -180 388 -19 52 -39 104 -43 115 -8 19
-23 63 -25 75 0 3 -11 37 -23 75 -12 39 -23 79 -25 90 -2 11 -6 27 -10 35 -11
31 -34 131 -43 185 -2 17 -7 41 -11 55 -7 27 -8 32 -19 105 -4 28 -8 55 -9 60
-2 10 -14 112 -21 190 -16 161 -21 438 -9 570 3 44 8 105 10 135 5 62 11 121
19 165 2 17 8 50 11 75 4 25 9 54 11 65 2 11 6 31 9 45 8 43 14 74 20 100 3
14 7 34 9 45 2 11 14 55 26 97 11 43 23 88 25 100 3 13 9 32 14 43 10 20 43
121 47 140 2 14 76 199 104 260 42 95 152 310 166 326 8 8 14 18 14 22 0 10
93 160 113 181 9 11 17 25 17 32 0 7 4 14 8 16 5 2 23 24 40 50 18 25 38 52
44 60 7 7 29 34 48 59 147 193 412 453 605 594 22 16 42 33 43 37 2 4 10 8 17
8 7 0 15 3 17 8 16 36 495 302 572 318 10 2 23 7 30 12 6 5 61 26 121 47 61
20 117 40 125 43 18 6 8 3 135 35 55 14 125 30 155 36 124 24 107 21 250 36
36 4 67 8 68 10 6 6 492 -3 537 -9z"/>
<path d="M156 20209 c-54 -13 -113 -63 -137 -117 -33 -71 -21 -132 66 -327 7
-16 37 -88 65 -160 47 -117 63 -156 91 -220 4 -11 31 -76 59 -145 28 -69 55
-134 60 -145 5 -11 20 -48 34 -82 94 -229 120 -292 166 -403 29 -69 52 -131
53 -137 0 -7 4 -13 9 -13 4 0 8 -5 8 -12 0 -6 36 -100 80 -207 82 -198 86
-208 113 -271 9 -19 25 -60 37 -90 12 -30 41 -102 65 -160 24 -58 67 -161 95
-230 28 -69 57 -138 64 -155 8 -16 41 -97 74 -180 33 -82 69 -168 78 -190 10
-22 18 -42 19 -45 1 -3 6 -16 12 -30 6 -14 30 -72 53 -130 23 -58 49 -121 57
-140 8 -19 19 -44 24 -55 4 -11 31 -76 59 -145 28 -69 55 -134 60 -145 5 -11
30 -71 55 -133 25 -61 51 -124 57 -140 6 -15 12 -29 13 -32 9 -26 20 -51 37
-82 10 -21 16 -38 12 -38 -5 0 -3 -5 4 -12 7 -7 12 -20 12 -30 0 -10 4 -18 8
-18 5 0 9 -6 9 -12 1 -12 85 -221 117 -293 8 -16 40 -93 71 -170 32 -77 62
-151 68 -165 6 -14 11 -27 12 -30 1 -3 6 -16 12 -30 6 -14 25 -61 43 -105 17
-44 38 -93 45 -110 16 -37 23 -58 21 -66 0 -3 4 -12 11 -20 6 -8 26 -50 43
-94 17 -44 37 -93 45 -110 7 -16 22 -55 34 -85 24 -59 31 -76 54 -130 9 -19
25 -60 37 -90 12 -30 28 -71 37 -90 8 -19 19 -44 23 -55 13 -31 81 -197 95
-230 7 -16 27 -66 45 -110 18 -44 38 -93 45 -110 7 -16 27 -66 45 -110 17 -44
38 -93 45 -110 8 -16 46 -109 85 -205 39 -96 77 -188 84 -205 7 -16 30 -72 51
-123 54 -132 113 -183 214 -184 88 0 150 47 198 151 20 42 36 81 38 86 3 16
34 88 81 192 8 17 14 34 14 38 0 4 7 21 15 38 34 74 85 202 85 214 0 7 5 13
10 13 6 0 10 6 10 14 0 7 11 38 23 67 26 59 34 81 34 89 0 3 10 23 22 45 11
22 21 43 21 46 0 4 10 28 22 55 12 27 23 51 23 54 1 3 7 18 13 33 7 16 12 33
12 38 0 5 5 9 10 9 6 0 9 3 8 8 -3 11 11 50 40 112 14 30 26 60 28 65 1 6 10
28 20 50 10 22 18 42 18 45 1 5 55 132 93 218 12 29 23 55 23 58 0 3 8 24 19
47 10 23 37 87 60 142 23 55 46 109 51 120 4 11 29 72 55 135 26 63 52 129 60
145 7 17 19 46 27 65 9 19 21 49 28 65 8 17 14 32 15 35 1 3 6 16 12 30 6 14
25 60 42 102 17 43 35 86 40 95 5 10 17 38 27 63 10 25 25 63 35 85 9 22 34
81 54 130 20 50 49 119 65 155 29 68 42 102 45 110 1 3 9 22 18 44 9 21 17 40
17 42 0 2 11 27 24 56 40 89 116 277 116 288 0 5 5 10 12 10 6 0 9 2 6 6 -5 4
21 73 77 199 7 17 23 55 35 85 12 30 31 74 41 97 11 23 19 44 19 47 0 3 14 35
30 71 17 36 30 68 30 70 0 4 25 66 122 295 5 14 16 39 24 55 7 17 25 59 39 95
14 36 30 74 35 85 4 11 25 61 46 110 20 50 46 109 56 132 11 23 21 48 22 55 2
7 13 36 25 63 29 64 44 99 45 105 1 4 58 142 108 260 22 51 25 60 63 150 15
36 33 79 40 95 7 17 30 71 50 120 20 50 42 101 48 115 6 14 11 27 12 30 3 8
85 207 110 265 7 17 32 75 55 130 23 55 48 114 56 132 8 17 14 34 14 37 0 3 9
28 21 54 12 26 25 56 30 67 93 211 200 489 203 526 11 143 -142 253 -275 199
-72 -30 -93 -61 -179 -268 -45 -108 -91 -216 -101 -239 -11 -23 -19 -45 -19
-48 0 -3 -11 -30 -23 -58 -33 -72 -62 -140 -63 -147 0 -3 -8 -23 -19 -45 -10
-22 -20 -49 -22 -60 -2 -11 -8 -21 -13 -23 -6 -2 -10 -10 -10 -17 0 -7 -13
-43 -30 -79 -16 -36 -26 -66 -22 -66 4 0 2 -4 -3 -8 -6 -4 -25 -45 -44 -92
-19 -47 -41 -101 -50 -120 -8 -19 -15 -37 -16 -40 0 -3 -11 -27 -23 -54 -12
-27 -22 -50 -22 -53 0 -2 -9 -23 -19 -46 -10 -23 -35 -82 -55 -132 -21 -49
-43 -103 -51 -120 -7 -16 -28 -66 -45 -110 -28 -70 -44 -107 -80 -190 -34 -77
-50 -119 -50 -131 0 -8 -4 -14 -10 -14 -5 0 -10 -6 -10 -13 0 -7 -16 -51 -36
-97 -20 -47 -41 -96 -46 -110 -6 -14 -12 -29 -14 -35 -2 -9 -12 -33 -54 -130
-5 -11 -21 -49 -35 -85 -15 -36 -31 -74 -36 -85 -32 -72 -161 -382 -163 -390
-3 -12 -18 -48 -44 -108 -45 -103 -57 -132 -58 -137 0 -3 -8 -23 -18 -45 -23
-52 -38 -89 -36 -93 0 -1 -6 -15 -14 -30 -18 -32 -109 -252 -107 -259 0 -2 -8
-19 -19 -38 -11 -20 -20 -40 -20 -45 0 -5 -13 -39 -30 -75 -16 -36 -30 -68
-30 -71 0 -3 -6 -20 -14 -37 -8 -18 -27 -61 -41 -97 -15 -36 -36 -85 -47 -110
-11 -24 -21 -49 -22 -55 -2 -5 -10 -28 -20 -50 -24 -55 -39 -89 -41 -95 -2 -5
-20 -48 -38 -90 -6 -14 -11 -27 -12 -30 -9 -27 -28 -70 -40 -92 -9 -15 -15
-29 -14 -30 1 -2 -6 -20 -15 -42 -9 -21 -16 -40 -16 -42 0 -2 -11 -27 -24 -56
-13 -29 -56 -132 -96 -228 -39 -96 -78 -188 -85 -205 -7 -16 -32 -77 -56 -135
-23 -58 -46 -109 -51 -114 -4 -6 -8 -16 -8 -23 0 -7 -12 -38 -26 -70 -35 -79
-38 -85 -111 -263 -19 -47 -41 -98 -48 -115 -22 -49 -48 -109 -51 -120 -3 -11
-139 -338 -154 -370 -26 -57 -90 -215 -90 -224 0 -6 -4 -11 -9 -11 -9 0 -26
48 -23 63 1 4 -2 7 -6 7 -4 0 -14 17 -21 38 -7 20 -19 51 -26 67 -7 17 -29 71
-49 120 -20 50 -41 99 -45 110 -5 11 -24 56 -41 100 -18 44 -41 98 -50 120
-10 22 -32 76 -50 120 -17 44 -37 94 -45 110 -7 17 -28 66 -45 110 -18 44 -41
100 -52 125 -11 24 -21 49 -22 55 -2 5 -10 28 -20 50 -10 22 -27 63 -38 90
-11 28 -25 64 -33 80 -7 17 -33 80 -58 140 -66 160 -70 170 -71 175 -2 11 -51
126 -63 150 -7 14 -13 29 -13 33 0 5 -6 23 -14 40 -19 40 -47 110 -48 117 0 3
-5 14 -11 25 -6 11 -12 22 -12 25 -1 3 -7 18 -14 34 -6 15 -25 63 -42 105 -17
42 -42 100 -55 129 -13 29 -24 55 -24 59 0 3 -16 45 -36 92 -20 47 -39 95 -44
106 -4 11 -15 37 -24 57 -26 58 -77 182 -80 193 -2 6 -13 32 -24 58 -12 27
-22 51 -22 53 0 4 -126 313 -155 379 -34 79 -79 191 -78 195 1 3 -5 16 -12 30
-17 32 -33 70 -85 200 -23 58 -48 119 -55 135 -30 69 -35 81 -37 95 -2 8 -6
17 -9 20 -3 3 -22 48 -43 100 -21 52 -44 109 -51 125 -8 17 -46 109 -85 205
-39 96 -75 184 -80 195 -32 71 -48 115 -42 115 4 0 2 4 -3 8 -6 4 -25 45 -44
92 -31 80 -67 167 -96 235 -8 17 -27 64 -43 105 -17 41 -38 92 -46 112 -9 21
-15 39 -14 40 1 2 -5 14 -12 28 -8 14 -15 27 -15 30 -1 3 -6 16 -12 30 -17 41
-102 247 -149 365 -25 61 -51 124 -59 142 -8 17 -15 34 -15 37 0 3 -10 28 -21
54 -35 78 -47 105 -65 152 -26 68 -163 401 -177 430 -39 80 -142 129 -231 109z"/>
<path d="M8628 20206 c-41 -12 -94 -55 -124 -101 -19 -30 -19 -79 -20 -3615
-1 -3555 -1 -3585 18 -3625 37 -75 104 -117 184 -117 70 0 129 33 171 96 l33
48 0 3579 c0 2738 -3 3585 -12 3606 -45 106 -146 158 -250 129z"/>
<path d="M12007 20208 c-7 -4 -20 -8 -30 -8 -21 0 -109 -79 -102 -91 3 -4 0
-9 -5 -11 -6 -2 -13 -17 -16 -33 -4 -17 -7 -1634 -7 -3595 l0 -3565 20 -40
c22 -42 48 -69 98 -100 29 -19 84 -19 2084 -20 1584 0 2063 3 2095 12 143 42
188 230 80 338 -62 62 91 58 -2029 60 -1061 1 -1932 3 -1935 4 -7 2 -6 3218 1
3225 3 3 771 6 1706 6 l1701 0 48 33 c117 78 129 234 25 325 -39 34 -70 45
-137 47 -33 1 -65 5 -72 9 -7 4 -12 4 -12 -1 0 -10 -91 -10 -108 1 -7 4 -12 4
-12 -1 0 -10 -132 -9 -148 1 -7 4 -12 3 -12 -2 0 -5 -12 -7 -27 -5 -16 2 -34
4 -40 4 -7 -1 -30 -1 -50 -1 -21 0 -49 0 -63 0 -14 0 -36 -2 -50 -3 -14 -2
-33 1 -42 5 -10 5 -18 5 -18 1 0 -4 -41 -8 -90 -8 -50 0 -90 4 -90 9 0 5 -6 5
-12 0 -16 -11 -39 -11 -55 -1 -7 5 -13 4 -13 0 0 -5 -19 -8 -42 -6 -50 4 -83
4 -118 0 -14 -2 -33 1 -42 5 -10 5 -18 5 -18 1 0 -10 -162 -9 -178 1 -7 4 -12
4 -12 -1 0 -4 -29 -8 -65 -8 -36 0 -65 3 -65 7 0 4 -7 5 -16 1 -25 -9 -137
-10 -156 -1 -10 5 -18 5 -18 0 0 -5 -12 -7 -27 -5 -16 2 -34 4 -40 4 -7 -1
-30 -1 -50 -1 -21 0 -49 0 -63 0 -14 0 -36 -2 -50 -3 -14 -2 -33 1 -42 5 -10
5 -18 5 -18 1 0 -4 -41 -8 -90 -8 -50 0 -90 4 -90 9 0 5 -6 5 -12 0 -16 -11
-39 -11 -55 -1 -7 5 -13 4 -13 0 0 -5 -19 -8 -42 -6 -50 4 -83 4 -118 0 -14
-2 -33 1 -42 5 -10 5 -18 5 -18 1 0 -10 -162 -9 -178 1 -7 4 -12 4 -12 -1 0
-4 -29 -8 -65 -8 -36 0 -65 3 -65 7 0 4 -7 5 -16 1 -25 -9 -137 -10 -156 -1
-10 5 -18 5 -18 0 0 -4 -19 -7 -42 -5 -53 4 -53 4 -105 0 -24 -2 -43 1 -43 6
0 4 -5 5 -11 2 -17 -11 -59 -13 -59 -3 0 5 -5 6 -11 2 -18 -11 -140 -10 -148
1 -4 6 -7 683 -7 1505 l1 1495 1930 1 c1062 0 1941 4 1955 9 80 26 140 101
145 181 3 46 -12 103 -30 116 -5 4 -6 8 -1 8 13 0 -54 59 -88 78 -28 15 -203
16 -2089 17 -1133 0 -2064 -3 -2070 -7z"/>
<path d="M18578 20207 c-18 -4 -39 -8 -45 -9 -7 -1 -13 -5 -13 -10 0 -4 -5 -8
-11 -8 -20 0 -70 -66 -84 -112 -7 -25 -11 -61 -8 -80 11 -76 67 -148 132 -170
28 -9 567 -12 2354 -12 1274 0 2317 -2 2317 -4 0 -5 -72 -105 -80 -112 -4 -3
-21 -27 -40 -55 -19 -27 -36 -52 -40 -55 -3 -3 -37 -48 -75 -100 -39 -52 -74
-99 -78 -105 -16 -20 -119 -161 -159 -217 -23 -32 -45 -58 -49 -58 -5 0 -9 -5
-9 -11 0 -6 -17 -33 -37 -59 -21 -26 -45 -58 -53 -70 -8 -12 -20 -28 -25 -34
-6 -6 -28 -36 -50 -66 -22 -30 -43 -59 -48 -65 -4 -5 -29 -39 -55 -75 -26 -36
-50 -66 -54 -68 -5 -2 -8 -7 -8 -12 0 -5 -9 -19 -20 -32 -11 -12 -56 -72 -101
-133 -44 -60 -89 -121 -99 -135 -10 -14 -47 -63 -82 -110 -34 -47 -66 -89 -71
-95 -4 -5 -26 -35 -48 -65 -22 -30 -49 -66 -59 -80 -18 -22 -71 -94 -118 -159
-9 -14 -36 -50 -59 -80 -76 -101 -142 -190 -198 -266 -11 -15 -95 -129 -188
-254 -92 -124 -236 -318 -319 -431 -83 -112 -155 -209 -160 -215 -5 -5 -77
-102 -160 -215 -83 -113 -172 -233 -197 -266 -25 -34 -55 -74 -66 -90 -11 -15
-31 -42 -45 -60 -14 -17 -33 -43 -42 -56 -37 -51 -128 -174 -136 -183 -4 -6
-33 -44 -62 -85 -30 -41 -60 -81 -67 -88 -7 -7 -20 -26 -30 -42 -9 -17 -21
-30 -25 -30 -4 0 -8 -6 -8 -14 0 -8 -3 -16 -7 -18 -5 -1 -60 -73 -123 -158
-63 -85 -118 -156 -122 -158 -5 -2 -8 -8 -8 -14 0 -5 -6 -15 -12 -23 -7 -7
-22 -25 -33 -41 -11 -15 -26 -33 -32 -40 -7 -7 -13 -15 -13 -19 0 -5 -47 -69
-75 -101 -5 -6 -17 -22 -25 -34 -14 -21 -100 -138 -140 -190 -10 -14 -62 -83
-115 -155 -53 -71 -101 -137 -108 -145 -7 -8 -30 -40 -52 -70 -22 -30 -43 -56
-47 -58 -5 -2 -8 -9 -8 -14 0 -6 -7 -18 -15 -27 -8 -9 -35 -43 -60 -76 -24
-33 -51 -69 -60 -80 -8 -11 -36 -49 -62 -85 -26 -36 -51 -69 -55 -75 -5 -5
-59 -77 -119 -160 -61 -82 -119 -161 -130 -175 -40 -52 -89 -119 -178 -240
-50 -69 -97 -132 -104 -140 -39 -49 -66 -89 -81 -120 -19 -41 -29 -127 -15
-136 5 -3 9 -12 9 -21 0 -32 64 -101 110 -119 43 -17 183 -18 2690 -19 1955 0
2654 3 2679 11 174 58 190 291 26 377 l-40 21 -2432 0 c-1883 0 -2433 3 -2433
12 0 7 3 14 8 16 7 3 26 28 132 173 24 33 48 65 52 70 8 9 309 415 363 490 11
15 31 42 45 60 14 18 34 45 45 61 11 15 26 33 33 40 6 7 12 17 12 23 0 6 5 11
10 11 6 0 10 4 10 9 0 5 9 20 20 33 10 12 81 106 156 208 75 102 145 196 155
210 10 14 31 41 46 62 16 20 36 47 45 60 9 12 35 48 58 78 22 30 48 66 58 79
9 13 23 30 30 37 6 7 12 15 12 18 0 3 7 14 15 23 28 35 81 106 385 518 57 77
107 142 112 143 4 2 8 10 8 17 0 7 3 15 8 17 4 2 39 46 77 98 39 52 75 102 82
110 61 79 143 193 143 200 0 5 4 10 8 12 4 2 55 66 112 143 138 185 143 192
184 250 19 28 44 60 55 72 12 12 21 25 21 29 0 3 10 19 23 34 38 48 65 82 129
170 34 47 146 198 248 335 102 138 237 320 300 405 63 85 118 160 123 165 12
16 110 148 132 179 11 16 25 33 30 40 6 6 52 67 102 136 50 69 99 135 110 147
10 12 40 54 68 92 27 39 53 71 57 71 4 0 8 6 8 13 0 6 11 26 25 42 13 17 76
100 139 185 108 147 129 175 194 261 15 20 36 48 47 63 18 25 60 81 82 111 5
6 23 30 41 55 19 25 79 106 134 180 55 74 134 182 176 240 42 58 87 116 99
130 13 14 23 28 23 31 0 3 9 17 20 30 32 39 34 42 70 94 19 27 41 56 49 65 54
57 102 166 95 215 -9 63 -55 145 -80 145 -8 0 -14 4 -14 8 0 4 -17 14 -37 22
-32 12 -425 14 -2565 14 -1390 1 -2542 -3 -2560 -7z"/>
</g>
</svg>
