<svg width="103" height="24" viewBox="0 0 103 24" fill="none" xmlns="http://www.w3.org/2000/svg">
<g clip-path="url(#clip0_80_11018)">
<path d="M27.1425 0.32898C27.0589 0.32898 26.976 0.345505 26.8988 0.377612C26.8215 0.40972 26.7513 0.456779 26.6922 0.516099C26.6331 0.575419 26.5862 0.645837 26.5543 0.723324C26.5223 0.800811 26.5059 0.883847 26.506 0.967687V23.0322C26.506 23.2015 26.5731 23.3639 26.6926 23.4836C26.812 23.6033 26.974 23.6705 27.1429 23.6705C27.3118 23.6705 27.4738 23.6033 27.5932 23.4836C27.7127 23.3639 27.7798 23.2015 27.7798 23.0322V0.967687C27.7799 0.883782 27.7635 0.800682 27.7315 0.723144C27.6995 0.645606 27.6526 0.575154 27.5934 0.515824C27.5342 0.456494 27.4639 0.409453 27.3865 0.377391C27.3092 0.345329 27.2262 0.328878 27.1425 0.32898Z" fill="white"/>
<path d="M50.2359 1.60564C50.3214 1.60863 50.4067 1.59433 50.4865 1.56359C50.5664 1.53286 50.6393 1.48632 50.7008 1.42675C50.7624 1.36718 50.8113 1.29581 50.8447 1.21687C50.8782 1.13794 50.8954 1.05307 50.8954 0.967321C50.8954 0.881573 50.8782 0.796704 50.8447 0.717772C50.8113 0.638839 50.7624 0.56746 50.7008 0.507892C50.6393 0.448323 50.5664 0.401784 50.4865 0.37105C50.4067 0.340315 50.3214 0.326016 50.2359 0.329H37.66C37.5762 0.328899 37.4933 0.345349 37.416 0.377411C37.3386 0.409473 37.2683 0.456515 37.2091 0.515845C37.1499 0.575175 37.103 0.645627 37.071 0.723165C37.039 0.800702 37.0226 0.883803 37.0227 0.967708V23.0322C37.0227 23.2016 37.0898 23.3641 37.2094 23.4839C37.3289 23.6036 37.4909 23.6709 37.66 23.6709H50.2359C50.3214 23.6739 50.4067 23.6596 50.4865 23.6289C50.5664 23.5982 50.6393 23.5516 50.7008 23.492C50.7624 23.4325 50.8113 23.3611 50.8447 23.2822C50.8782 23.2032 50.8954 23.1184 50.8954 23.0326C50.8954 22.9469 50.8782 22.862 50.8447 22.7831C50.8113 22.7041 50.7624 22.6328 50.7008 22.5732C50.6393 22.5136 50.5664 22.4671 50.4865 22.4363C50.4067 22.4056 50.3214 22.3913 50.2359 22.3943H38.2964V12.2833H48.8015C48.9666 12.2776 49.123 12.2078 49.2377 12.0887C49.3525 11.9696 49.4166 11.8105 49.4166 11.645C49.4166 11.4795 49.3525 11.3204 49.2377 11.2013C49.123 11.0822 48.9666 11.0124 48.8015 11.0067H38.2964V1.60564H50.2359Z" fill="white"/>
<path d="M74.3962 1.28281C74.4185 1.24561 74.4369 1.20617 74.451 1.16513C74.4638 1.12379 74.4723 1.08124 74.4765 1.03816C74.4828 1.01474 74.4877 0.990956 74.4912 0.966934C74.4912 0.950676 74.4834 0.93829 74.4819 0.922032C74.4781 0.878642 74.4696 0.835802 74.4564 0.794289C74.4465 0.756076 74.4333 0.71878 74.417 0.682805C74.3983 0.648669 74.3766 0.616281 74.3521 0.58603C74.3261 0.550681 74.2966 0.518005 74.2641 0.488482C74.2525 0.479192 74.2471 0.464483 74.2347 0.455193C74.214 0.44408 74.1926 0.434257 74.1706 0.425775C74.1331 0.402194 74.0929 0.383218 74.0509 0.369257C74.0109 0.356454 73.9698 0.34789 73.9281 0.343708C73.9039 0.337323 73.8794 0.332413 73.8547 0.329H58.2075C58.122 0.326016 58.0368 0.340315 57.9569 0.37105C57.877 0.401784 57.8041 0.448323 57.7426 0.507892C57.6811 0.56746 57.6321 0.63884 57.5987 0.717772C57.5653 0.796704 57.548 0.881573 57.548 0.967321C57.548 1.05307 57.5653 1.13794 57.5987 1.21687C57.6321 1.29581 57.6811 1.36718 57.7426 1.42675C57.8041 1.48632 57.877 1.53286 57.9569 1.56359C58.0368 1.59433 58.122 1.60863 58.2075 1.60564H72.5863L56.9739 22.6513C56.9592 22.6715 56.9561 22.6955 56.9438 22.7164C56.8987 22.7902 56.8722 22.8739 56.8665 22.9602C56.8602 22.9839 56.8553 23.008 56.8519 23.0322C56.8519 23.0485 56.8596 23.0609 56.8604 23.0771C56.8648 23.1205 56.8736 23.1633 56.8866 23.2049C56.8958 23.2431 56.909 23.2802 56.926 23.3156C56.9445 23.3503 56.9665 23.3829 56.9917 23.4131C57.0171 23.4485 57.0464 23.481 57.079 23.5099C57.0905 23.52 57.096 23.5347 57.1083 23.544C57.1356 23.5604 57.164 23.5749 57.1933 23.5873C57.2162 23.6016 57.2402 23.614 57.2651 23.6245C57.3362 23.6531 57.4118 23.6686 57.4884 23.6702H73.8578C74.0228 23.6644 74.1792 23.5946 74.294 23.4755C74.4087 23.3565 74.4728 23.1974 74.4728 23.0318C74.4728 22.8663 74.4087 22.7072 74.294 22.5881C74.1792 22.4691 74.0228 22.3993 73.8578 22.3935H58.7521L74.3653 1.34861C74.3769 1.32731 74.3872 1.30534 74.3962 1.28281Z" fill="white"/>
<path d="M19.1617 0.378535C19.0058 0.313926 18.8307 0.313719 18.6745 0.377962C18.5184 0.442204 18.394 0.565689 18.3283 0.721503L9.7172 21.3669L1.22584 0.723824C1.16141 0.567364 1.03761 0.442964 0.881665 0.377991C0.725724 0.313019 0.550417 0.312798 0.394312 0.377374C0.238207 0.44195 0.114093 0.566034 0.0492683 0.72233C-0.0155562 0.878626 -0.0157796 1.05433 0.0486495 1.21079L9.1232 23.2753C9.15258 23.344 9.1939 23.4069 9.24524 23.4611C9.25959 23.4755 9.27481 23.4889 9.29082 23.5014C9.33366 23.5404 9.38176 23.5733 9.43372 23.5989C9.44531 23.6043 9.45303 23.616 9.46539 23.6206C9.47775 23.6252 9.48238 23.6206 9.49165 23.626C9.56113 23.6534 9.63485 23.6683 9.70948 23.6701H9.71411C9.78815 23.6682 9.8613 23.6535 9.93039 23.6268C9.93812 23.6268 9.94739 23.6268 9.95511 23.6214C9.96284 23.616 9.97519 23.6059 9.98678 23.6005C10.0392 23.5751 10.0878 23.5425 10.1312 23.5037C10.1471 23.4911 10.1623 23.4776 10.1768 23.4634C10.2284 23.4096 10.27 23.3469 10.2996 23.2784L19.5024 1.21389C19.5676 1.05782 19.5683 0.882208 19.5045 0.725593C19.4406 0.568979 19.3173 0.444161 19.1617 0.378535Z" fill="white"/>
<path d="M91.4453 0C85.357 0 80.4041 5.38297 80.4041 12C80.4041 18.617 85.357 24 91.4453 24C97.5336 24 102.486 18.6163 102.486 12C102.486 5.38375 97.5328 0 91.4453 0ZM91.4453 22.7234C86.0591 22.7234 81.6786 17.9133 81.6786 12C81.6786 6.08671 86.0591 1.27742 91.4453 1.27742C96.8315 1.27742 101.212 6.08749 101.212 12C101.212 17.9125 96.8307 22.7234 91.4453 22.7234Z" fill="white"/>
</g>
<defs>
<clipPath id="clip0_80_11018">
<rect width="102.486" height="24" fill="white"/>
</clipPath>
</defs>
</svg>