<svg width="43" height="187" viewBox="0 0 43 187" fill="none" xmlns="http://www.w3.org/2000/svg">
<g clip-path="url(#clip0_470_10524)">
<path d="M0 4.55263V146.09C0 157.946 9.58572 187 21.504 187C33.3743 187 43 157.946 43 146.09V4.55263H0Z" fill="#46AF87"/>
<path d="M21.504 180.853C31.9844 180.853 40.6755 157.994 42.2012 145.253C41.7699 157.157 32.6714 183.819 21.504 183.819C10.3206 183.819 1.23019 157.157 0.798828 145.253C2.34053 157.994 11.0236 180.853 21.504 180.853Z" fill="#14497D"/>
<path d="M26.9039 123.295H16.096C9.21025 123.295 3.50674 128.964 2.51622 136.371H2.35645V6.90463H40.6594V136.371H40.4997C39.4932 128.964 33.7896 123.295 26.9039 123.295Z" fill="#14497D"/>
<path d="M21.504 174.57C10.9277 174.57 2.33252 149.75 2.33252 139.624V136.347H2.49229C3.49081 128.94 9.19432 123.271 16.0721 123.271H26.88C33.7658 123.271 39.4693 128.94 40.4598 136.347H40.6195V139.648C40.6515 149.774 32.0802 174.57 21.504 174.57Z" fill="white"/>
<path d="M16.0962 125.305C10.3608 125.305 5.37617 129.849 4.50546 135.877L4.36963 136.826V138.691C4.36963 148.347 12.9648 169.404 21.5041 169.404C30.0434 169.404 38.6386 148.339 38.6386 138.691V136.834L38.4949 135.885C37.6242 129.857 32.6396 125.313 26.9041 125.313L16.0962 125.305Z" fill="#8ED3FF"/>
<path d="M16.0962 125.305C10.3608 125.305 5.37617 129.849 4.50546 135.877L4.36963 136.826V138.691C4.36963 148.347 12.9648 169.404 21.5041 169.404C30.0434 169.404 38.6386 148.339 38.6386 138.691V136.834L38.4949 135.885C37.6242 129.857 32.6396 125.313 26.9041 125.313L16.0962 125.305Z" fill="#42ABCC"/>
<path d="M26.9038 160.41C28.3967 160.413 29.8731 160.723 31.2413 161.319C28.3576 166.007 24.9227 169.396 21.5038 169.396C18.0849 169.396 14.642 166.007 11.7583 161.319C13.1268 160.724 14.603 160.414 16.0959 160.41H26.9038Z" fill="#2E7889"/>
<path d="M4.45752 136.204L4.50545 135.877C5.37615 129.849 10.3607 125.304 16.0962 125.304H26.9041C32.6396 125.304 37.6241 129.849 38.4948 135.877L38.5428 136.204H4.45752Z" fill="#4C4C4C"/>
<path opacity="0.3" d="M33.1508 157.906C22.9419 149.838 18.3088 134.784 17.2704 125.304H25.4422C27.0957 140.206 31.8886 149.12 35.0999 153.585C34.4928 155.06 33.8457 156.511 33.1508 157.906ZM31.1138 161.534C30.1608 163.098 29.0586 164.567 27.8227 165.919C18.1411 161.47 10.3048 152.708 5.10451 144.543C4.67118 142.621 4.43299 140.661 4.39355 138.691V136.834L4.52934 135.885C4.90089 133.284 6.07333 130.863 7.88435 128.956C15.6168 148.083 25.4342 157.444 31.1058 161.534H31.1138Z" fill="white"/>
<path d="M26.9518 109.319H16.04C15.1577 109.319 14.4424 108.605 14.4424 107.724V85.8778C14.4424 84.9972 15.1577 84.2832 16.04 84.2832H26.9518C27.8341 84.2832 28.5494 84.9972 28.5494 85.8778V107.724C28.5494 108.605 27.8341 109.319 26.9518 109.319Z" fill="#253549"/>
<path d="M25.8416 109.319H17.1665C16.2841 109.319 15.5688 108.605 15.5688 107.724V87.6638C15.5688 86.7831 16.2841 86.0692 17.1665 86.0692H25.8416C26.7239 86.0692 27.4392 86.7831 27.4392 87.6638V107.724C27.4392 108.605 26.7239 109.319 25.8416 109.319Z" fill="#446287"/>
<path d="M16.7988 106.281V105.739H26.2008V106.281H16.7988ZM16.7988 104.582H26.2008V105.125H16.7988V104.582ZM16.7988 103.434H26.2008V103.977H16.7988V103.434ZM16.7988 102.278H26.2008V102.812H16.7988V102.278ZM16.7988 101.122H26.2008V101.672H16.7988V101.122Z" fill="#14497D"/>
<path d="M16.7988 93.8748V93.3326H26.2008V93.8748H16.7988ZM16.7988 92.1765H26.2008V92.7187H16.7988V92.1765ZM16.7988 91.0204H26.2008V91.5705H16.7988V91.0204ZM16.7988 89.8723H26.2008V90.4145H16.7988V89.8723ZM16.7988 88.7162H26.2008V89.2583H16.7988V88.7162Z" fill="#14497D"/>
<path d="M26.9518 53.228H16.04C15.1577 53.228 14.4424 52.5141 14.4424 51.6334V29.7873C14.4424 28.9066 15.1577 28.1926 16.04 28.1926H26.9518C27.8341 28.1926 28.5494 28.9066 28.5494 29.7873V51.6334C28.5494 52.5141 27.8341 53.228 26.9518 53.228Z" fill="#253549"/>
<path d="M25.8416 53.228H17.1665C16.2841 53.228 15.5688 52.5141 15.5688 51.6334V31.5732C15.5688 30.6925 16.2841 29.9786 17.1665 29.9786H25.8416C26.7239 29.9786 27.4392 30.6925 27.4392 31.5732V51.6334C27.4392 52.5141 26.7239 53.228 25.8416 53.228Z" fill="#446287"/>
<path d="M16.7988 50.1904V49.6483H26.2008V50.1904H16.7988ZM16.7988 48.4922H26.2008V49.0423H16.7988V48.4922ZM16.7988 47.344H26.2008V47.8862H16.7988V47.344ZM16.7988 46.188H26.2008V46.7381H16.7988V46.188ZM16.7988 45.0398H26.2008V45.582H16.7988V45.0398Z" fill="#14497D"/>
<path d="M16.7988 37.7842V37.242H26.2008V37.7842H16.7988ZM16.7988 36.0859H26.2008V36.6361H16.7988V36.0859ZM16.7988 34.9378H26.2008V35.48H16.7988V34.9378ZM16.7988 33.7817H26.2008V34.3318H16.7988V33.7817ZM16.7988 32.6336H26.2008V33.1758H16.7988V32.6336Z" fill="#14497D"/>
<path d="M21.5041 64.486C20.6941 64.4828 19.901 64.7174 19.2235 65.1607C18.5461 65.604 18.0142 66.2363 17.6941 66.979C17.374 67.7217 17.2797 68.542 17.4231 69.3377C17.5666 70.1335 17.9412 70.8696 18.5006 71.4544L18.7243 71.6936H24.276L24.4997 71.4544C25.0586 70.8701 25.4331 70.1347 25.5768 69.3397C25.7205 68.5447 25.6269 67.7251 25.3078 66.9827C24.9887 66.2403 24.458 65.6079 23.7818 65.164C23.1055 64.7201 22.3135 64.4843 21.5041 64.486Z" fill="#253549"/>
<path d="M19.0594 70.9204C18.4633 70.301 18.1312 69.475 18.1328 68.6162C18.1328 67.7238 18.488 66.868 19.1202 66.237C19.7523 65.606 20.6097 65.2516 21.5038 65.2516C22.3978 65.2516 23.2553 65.606 23.8874 66.237C24.5196 66.868 24.8748 67.7238 24.8748 68.6162C24.8735 69.476 24.5385 70.3019 23.9401 70.9204H19.0594Z" fill="#446287"/>
<path d="M43.008 123.774H41.4663V107.82H43.008V123.774Z" fill="#42ABCC"/>
<path d="M43.008 105.26H41.4663V89.3062H43.008V105.26Z" fill="#303B44"/>
<path d="M43.0002 104.375H42.1934V97.6779H43.0002V104.375Z" fill="#42ABCC"/>
<path d="M43.0002 96.8328H42.1934V90.1354H43.0002V96.8328Z" fill="#42ABCC"/>
<path d="M43.008 86.1011H41.4663V70.147H43.008V86.1011Z" fill="#42ABCC"/>
<path d="M43.008 67.5876H41.4663V51.6336H43.008V67.5876Z" fill="#303B44"/>
<path d="M43.0002 66.7104H42.1934V60.0131H43.0002V66.7104Z" fill="#42ABCC"/>
<path d="M43.0002 59.168H42.1934V52.4706H43.0002V59.168Z" fill="#42ABCC"/>
<path d="M43.008 48.4363H41.4663V32.4822H43.008V48.4363Z" fill="#42ABCC"/>
<path d="M43.008 29.9229H41.4663V13.9688H43.008V29.9229Z" fill="#303B44"/>
<path d="M43.0002 29.0378H42.1934V22.3405H43.0002V29.0378Z" fill="#42ABCC"/>
<path d="M43.0002 21.4954H42.1934V14.798H43.0002V21.4954Z" fill="#42ABCC"/>
<path d="M-0.000195622 107.82H1.5415L1.5415 123.774H-0.000195622L-0.000195622 107.82Z" fill="#42ABCC"/>
<path d="M-0.000195622 89.3062H1.5415L1.5415 105.26H-0.000195622L-0.000195622 89.3062Z" fill="#303B44"/>
<path d="M-0.000166357 97.678H0.806641L0.806641 104.375H-0.000166357L-0.000166357 97.678Z" fill="#42ABCC"/>
<path d="M-0.000166357 90.1433H0.806641L0.806641 96.8407H-0.000166357L-0.000166357 90.1433Z" fill="#42ABCC"/>
<path d="M-0.000195622 70.147H1.5415L1.5415 86.101H-0.000195622L-0.000195622 70.147Z" fill="#42ABCC"/>
<path d="M-0.000195622 51.6335H1.5415L1.5415 67.5876H-0.000195622L-0.000195622 51.6335Z" fill="#303B44"/>
<path d="M-0.000166357 60.0132H0.806641L0.806641 66.7105H-0.000166357L-0.000166357 60.0132Z" fill="#42ABCC"/>
<path d="M-0.000166357 52.4707H0.806641L0.806641 59.1681H-0.000166357L-0.000166357 52.4707Z" fill="#42ABCC"/>
<path d="M-0.000195622 32.4822H1.5415L1.5415 48.4362H-0.000195622L-0.000195622 32.4822Z" fill="#42ABCC"/>
<path d="M-0.000195622 13.9688H1.5415L1.5415 29.9228H-0.000195622L-0.000195622 13.9688Z" fill="#303B44"/>
<path d="M-0.000166357 22.3406H0.806641L0.806641 29.038H-0.000166357L-0.000166357 22.3406Z" fill="#42ABCC"/>
<path d="M-0.000166357 14.8059H0.806641L0.806641 21.5033H-0.000166357L-0.000166357 14.8059Z" fill="#42ABCC"/>
<path d="M9.06641 176.468C10.2566 176.683 11.9501 178.062 13.3401 180.135C14.2267 181.377 14.8467 182.789 15.1613 184.281C12.7084 182.033 10.6484 179.392 9.06641 176.468Z" fill="#FFD911"/>
<path d="M33.9492 176.468C32.767 176.683 31.0735 178.062 29.6836 180.135C28.7937 181.376 28.1733 182.788 27.8623 184.281C30.3127 182.033 32.3699 179.392 33.9492 176.468Z" fill="#FFD911"/>
<path d="M29.4922 4.55252V6.09131L13.508 6.09131V4.55252L29.4922 4.55252Z" fill="#303B44"/>
<path d="M28.6133 4.55263V5.35791H21.9033V4.55263H28.6133Z" fill="#42ABCC"/>
<path d="M21.0566 4.55267V5.35791H14.3466V4.55267H21.0566Z" fill="#42ABCC"/>
<path d="M4.5293 11.9198H4.99262V118.894H4.5293V11.9198ZM6.17485 11.9198H6.78995V118.894H6.21483L6.17485 11.9198ZM7.82839 11.9198H8.50741V118.894H7.82839V11.9198ZM9.48194 11.9198H10.2807V118.894H9.48194V11.9198ZM11.1355 118.894V11.9198H12.0142V118.894H11.1355Z" fill="#324D6B"/>
<path d="M38.375 118.894H37.9437V11.9198H38.407L38.375 118.894ZM36.7214 118.894H36.1543V11.9198H36.7214V118.894ZM35.0759 118.894H34.3969V11.9198H35.0759V118.894ZM33.4224 118.894H32.6236V11.9198H33.4224V118.894ZM31.7689 11.9198V118.894H30.8901V11.9198H31.7689Z" fill="#324D6B"/>
</g>
<defs>
<clipPath id="clip0_470_10524">
<rect width="43" height="187" fill="white" transform="matrix(1 0 0 -1 0 187)"/>
</clipPath>
</defs>
</svg>
